<svg width="194" height="10" viewBox="0 0 194 10" fill="none" xmlns="http://www.w3.org/2000/svg">
  <path id="Vector"
    d="M193.218 8.45984C182.152 7.68936 171.09 6.8475 160.024 6.17276C153.258 5.76543 146.478 5.54845 139.704 5.36377C133.478 5.19332 127.248 5.07045 121.016 5.10679C110.908 5.16822 100.789 5.15716 90.6978 5.55452C63.6708 6.60596 36.6622 7.85792 9.64414 9.01358C7.68516 9.10037 5.60993 9.46601 3.80591 8.94986C2.45303 8.56078 0.863993 7.15895 0.429225 5.86938C-0.246066 3.86167 1.34615 3.01608 3.35055 2.97231C14.7483 2.69781 26.15 2.36781 37.5547 2.10973C58.8208 1.62163 80.0833 1.06948 101.354 0.749067C110.757 0.606706 120.187 0.777053 129.585 1.18422C132.762 1.32576 135.939 1.48317 139.126 1.6094C141.862 1.72019 144.634 2.82971 147.284 2.54401C151.236 2.11774 154.91 3.93574 158.649 3.55839C163.671 3.05522 168.347 4.63207 173.206 4.96241C178.315 5.30215 183.43 5.67419 188.526 6.18843C190.185 6.35969 191.794 7.01368 193.426 7.45407C193.362 7.78441 193.298 8.12268 193.234 8.46095L193.218 8.45984Z"
    fill="url(#paint0_linear_319_246)" />
  <defs>
    <linearGradient id="paint0_linear_319_246" x1="0.585853" y1="0.413877" x2="192.983" y2="13.8087"
      gradientUnits="userSpaceOnUse">
      <stop stop-color="#C082FF" />
      <stop offset="1" stop-color="#7967FF" />
    </linearGradient>
  </defs>
</svg>