<svg width="32" height="32" viewBox="0 0 32 32" fill="none" xmlns="http://www.w3.org/2000/svg">
<path fill-rule="evenodd" clip-rule="evenodd" d="M8.27339 8.3436C8.30873 16.6709 8.30935 16.6885 8.58735 17.3162C9.29615 18.9175 10.5672 20.0587 12.4268 20.7634C12.9807 20.9733 14.5766 21.4475 15.9733 21.8174C17.3701 22.1871 18.7852 22.6014 19.1181 22.7382C20.6964 23.3861 21.3843 24.3243 21.289 25.6985C21.1511 27.6856 19.3105 28.8796 16.3974 28.8718C13.3348 28.8635 11.3699 27.5707 10.7777 25.1739L10.5558 24.2761H9.02798H7.5V24.8326C7.5 27.1623 9.22074 29.8722 11.3681 30.9247C14.3922 32.4067 18.7421 32.3503 21.3127 30.7959C22.2877 30.2063 23.3656 29.0157 23.8487 27.9947C25.2008 25.1373 24.4059 22.078 21.8524 20.311C20.8825 19.64 20.3003 19.4297 17.0167 18.5638C12.1147 17.2711 11.4465 16.8592 11.4465 15.1305C11.4465 13.76 12.431 12.728 14.109 12.34C15.0858 12.1142 18.3188 12.2327 19.0642 12.5219C20.3904 13.0361 21.0657 14.0917 21.0611 15.6424C21.058 16.705 20.8188 17.3414 20.142 18.089C19.8961 18.3605 19.695 18.6363 19.695 18.7019C19.695 18.886 21.5646 19.984 22.0345 20.0758C22.5927 20.1851 22.9714 19.9834 23.4201 19.3376C24.5296 17.7408 24.7854 14.9534 23.9844 13.1884C23.5505 12.2321 22.6063 11.1792 21.756 10.7037L21.0631 10.3161L21.7422 9.70479C22.2403 9.2566 22.5473 8.82786 22.8936 8.0966C23.3502 7.13301 23.366 7.05375 23.366 5.73147C23.366 4.46277 23.3372 4.3001 22.9696 3.49127C22.2704 1.95235 21.1487 0.931289 19.535 0.364525C18.8083 0.109357 18.4447 0.0901585 13.4998 0.0464415L8.23792 0L8.27339 8.3436ZM18.1851 3.26386C19.01 3.45481 19.7204 4.08436 20.0132 4.88373C20.3267 5.73926 20.2238 7.08942 19.7934 7.76723C19.1009 8.85821 17.9455 9.12194 14.0917 9.06863L11.5443 9.03347L11.5107 6.18265C11.4921 4.61468 11.5035 3.2601 11.5357 3.17253C11.6127 2.96329 17.2197 3.04034 18.1851 3.26386Z" fill="white"/>
</svg>
