<svg width="137" height="40" viewBox="0 0 137 40" fill="none" xmlns="http://www.w3.org/2000/svg">
  <path
    d="M33.02 1.84C33.02 1.69333 33.08 1.56 33.2 1.44C33.32 1.32 33.4533 1.26 33.6 1.26H39.62C40.1533 1.26 40.6467 1.36 41.1 1.56C41.5667 1.76 41.9733 2.03333 42.32 2.38L42.36 2.42C42.68 2.76667 42.94 3.16667 43.14 3.62C43.34 4.06 43.44 4.54667 43.44 5.08C43.44 5.58667 43.34 6.07333 43.14 6.54C42.94 6.99333 42.6667 7.39333 42.32 7.74V7.78C42.1333 7.94 41.94 8.09333 41.74 8.24C41.94 8.36 42.1333 8.49333 42.32 8.64C42.5067 8.77333 42.6867 8.92667 42.86 9.1C43.2867 9.51333 43.62 10 43.86 10.56C44.1133 11.1067 44.24 11.7 44.24 12.34C44.24 12.9933 44.1133 13.6 43.86 14.16C43.62 14.7067 43.2867 15.1933 42.86 15.62C42.4467 16.0467 41.96 16.3867 41.4 16.64C40.84 16.88 40.2333 17 39.58 17H33.58C33.4333 17 33.3 16.94 33.18 16.82C33.06 16.7 33 16.5667 33 16.42L33.02 1.84ZM35.4 8.86C35.2267 8.86 35.0867 8.8 34.98 8.68C34.8733 8.56 34.82 8.42667 34.82 8.28C34.82 8.13333 34.8733 8 34.98 7.88C35.0867 7.76 35.2267 7.7 35.4 7.7H39.66C40.0333 7.7 40.3733 7.63333 40.68 7.5C41 7.35333 41.28 7.16 41.52 6.92C41.76 6.68 41.9467 6.40667 42.08 6.1C42.2267 5.78 42.3 5.44 42.3 5.08C42.3 4.70667 42.2333 4.36667 42.1 4.06C41.9667 3.74 41.7867 3.46 41.56 3.22H41.52C41.28 2.98 41 2.79333 40.68 2.66C40.3733 2.51333 40.0333 2.44 39.66 2.44H34.2V15.8H39.62C40.1 15.8 40.5533 15.7067 40.98 15.52C41.4067 15.3333 41.7733 15.0867 42.08 14.78C42.4 14.4733 42.6467 14.1067 42.82 13.68C43.0067 13.2533 43.1 12.8 43.1 12.32C43.1 11.84 43.0067 11.3933 42.82 10.98C42.6467 10.5533 42.4 10.1867 42.08 9.88C41.7733 9.56 41.4067 9.31333 40.98 9.14C40.5667 8.95333 40.12 8.86 39.64 8.86H35.38H35.4ZM48.9256 16.4C48.9256 16.5467 48.8656 16.68 48.7456 16.8C48.6256 16.92 48.4923 16.98 48.3456 16.98C48.199 16.98 48.0656 16.92 47.9456 16.8C47.8256 16.68 47.7656 16.5467 47.7656 16.4V1.88C47.7656 1.73333 47.8256 1.6 47.9456 1.48C48.0656 1.36 48.199 1.3 48.3456 1.3H54.3456C54.999 1.3 55.599 1.42667 56.1456 1.68C56.7056 1.92 57.199 2.25333 57.6256 2.68C58.039 3.09333 58.3656 3.58 58.6056 4.14C58.859 4.68667 58.9856 5.28 58.9856 5.92C58.9856 6.57333 58.859 7.18 58.6056 7.74C58.3656 8.3 58.039 8.78667 57.6256 9.2C57.2523 9.58667 56.8123 9.9 56.3056 10.14C55.799 10.3667 55.2656 10.4933 54.7056 10.52C54.679 10.5467 54.6323 10.56 54.5656 10.56H51.9056L58.7456 15.94C58.8656 16.0467 58.939 16.18 58.9656 16.34C58.9923 16.5 58.9523 16.64 58.8456 16.76C58.739 16.9067 58.6123 16.9867 58.4656 17C58.319 17.0267 58.1723 16.9867 58.0256 16.88L49.8856 10.48C49.7256 10.36 49.6456 10.2 49.6456 10C49.6456 9.82667 49.699 9.68667 49.8056 9.58C49.9123 9.47333 50.0523 9.42 50.2256 9.42H54.3456C54.8256 9.42 55.279 9.33333 55.7056 9.16C56.1323 8.97333 56.499 8.72 56.8056 8.4C57.1123 8.09333 57.359 7.72667 57.5456 7.3C57.7323 6.87333 57.8256 6.42 57.8256 5.94C57.8256 5.46 57.7323 5.01333 57.5456 4.6C57.359 4.17333 57.1123 3.80667 56.8056 3.5C56.499 3.18 56.1323 2.93333 55.7056 2.76C55.279 2.57333 54.8256 2.48 54.3456 2.48H48.9256V16.42V16.4ZM68.9205 15.82C69.5871 15.82 70.2071 15.6933 70.7805 15.44C71.3671 15.1867 71.8738 14.8467 72.3005 14.42C72.7405 13.98 73.0805 13.4733 73.3205 12.9C73.5738 12.3133 73.7005 11.6867 73.7005 11.02V1.9C73.7005 1.75333 73.7605 1.62 73.8805 1.5C74.0005 1.38 74.1338 1.32 74.2805 1.32C74.4271 1.32 74.5605 1.38 74.6805 1.5C74.8005 1.62 74.8605 1.75333 74.8605 1.9V11.02C74.8605 11.8467 74.7071 12.62 74.4005 13.34C74.1071 14.06 73.6805 14.7 73.1205 15.26C72.5605 15.7933 71.9271 16.22 71.2205 16.54C70.5138 16.8467 69.7471 17 68.9205 17C68.0938 17 67.3205 16.8467 66.6005 16.54C65.8805 16.22 65.2538 15.7933 64.7205 15.26C64.1605 14.7 63.7271 14.0667 63.4205 13.36C63.1271 12.6533 62.9805 11.88 62.9805 11.04V1.92C62.9805 1.77333 63.0338 1.64 63.1405 1.52C63.2471 1.4 63.3871 1.34 63.5605 1.34C63.7071 1.34 63.8338 1.4 63.9405 1.52C64.0471 1.64 64.1005 1.77333 64.1005 1.92V11.04C64.1005 11.7067 64.2271 12.3333 64.4805 12.92C64.7338 13.4933 65.0805 14 65.5205 14.44C65.9471 14.8667 66.4471 15.2067 67.0205 15.46C67.6071 15.7133 68.2338 15.84 68.9005 15.84L68.9205 15.82ZM78.8594 1.9C78.8594 1.75333 78.9127 1.62 79.0194 1.5C79.126 1.38 79.266 1.32 79.4394 1.32C79.6527 1.32 79.8127 1.41333 79.9194 1.6L89.7594 14.68V1.9C89.7594 1.75333 89.8194 1.62 89.9394 1.5C90.0594 1.38 90.1927 1.32 90.3394 1.32C90.5127 1.32 90.6527 1.38 90.7594 1.5C90.866 1.62 90.9194 1.75333 90.9194 1.9V16.42C90.9194 16.5667 90.866 16.7 90.7594 16.82C90.6527 16.94 90.5127 17 90.3394 17C90.126 17 89.966 16.9067 89.8594 16.72L80.0194 3.64V16.42C80.0194 16.5667 79.9594 16.7 79.8394 16.82C79.7194 16.94 79.586 17 79.4394 17C79.266 17 79.126 16.94 79.0194 16.82C78.9127 16.7 78.8594 16.5667 78.8594 16.42V1.9ZM101.774 2.48C100.854 2.48 99.9874 2.65333 99.1741 3C98.3741 3.34667 97.6674 3.82 97.0541 4.42C96.4541 5.03333 95.9807 5.74667 95.6341 6.56C95.2874 7.36 95.1141 8.22 95.1141 9.14C95.1141 10.06 95.2874 10.9267 95.6341 11.74C95.9807 12.54 96.4541 13.24 97.0541 13.84C97.6674 14.4533 98.3741 14.9333 99.1741 15.28C99.9874 15.6267 100.854 15.8 101.774 15.8C102.694 15.8 103.554 15.6267 104.354 15.28C105.167 14.9333 105.874 14.4533 106.474 13.84C107.087 13.24 107.567 12.54 107.914 11.74C108.261 10.9267 108.434 10.06 108.434 9.14C108.434 8.22 108.261 7.36 107.914 6.56C107.567 5.74667 107.087 5.03333 106.474 4.42C105.874 3.82 105.167 3.34667 104.354 3C103.554 2.65333 102.694 2.48 101.774 2.48ZM101.774 17C100.681 17 99.6607 16.7933 98.7141 16.38C97.7674 15.9667 96.9341 15.4 96.2141 14.68C95.5074 13.9733 94.9474 13.1467 94.5341 12.2C94.1341 11.2533 93.9341 10.24 93.9341 9.16C93.9341 8.06667 94.1341 7.04667 94.5341 6.1C94.9474 5.15333 95.5074 4.32 96.2141 3.6C96.9341 2.89333 97.7674 2.34 98.7141 1.94C99.6607 1.52667 100.681 1.32 101.774 1.32C102.854 1.32 103.861 1.52667 104.794 1.94C105.741 2.34 106.574 2.89333 107.294 3.6C108.014 4.32 108.574 5.15333 108.974 6.1C109.387 7.04667 109.594 8.06667 109.594 9.16C109.594 10.24 109.387 11.2533 108.974 12.2C108.574 13.1467 108.014 13.9733 107.294 14.68C106.574 15.4 105.741 15.9667 104.794 16.38C103.861 16.7933 102.854 17 101.774 17ZM33 36.98C32.8533 36.98 32.72 36.92 32.6 36.8C32.48 36.68 32.42 36.5467 32.42 36.4C32.42 36.2267 32.48 36.0867 32.6 35.98C32.72 35.8733 32.8533 35.82 33 35.82H39C39.48 35.82 39.9333 35.7267 40.36 35.54C40.7867 35.3533 41.1533 35.1067 41.46 34.8C41.7667 34.4933 42.0133 34.1267 42.2 33.7C42.3867 33.2733 42.48 32.82 42.48 32.34C42.48 31.86 42.3867 31.4133 42.2 31C42.0133 30.5733 41.7667 30.2067 41.46 29.9C41.1533 29.58 40.7867 29.3333 40.36 29.16C39.9467 28.9733 39.5 28.88 39.02 28.88H36.22C35.6867 28.88 35.1933 28.7867 34.74 28.6C34.3 28.4133 33.9067 28.1467 33.56 27.8L33.52 27.76C33.1733 27.4133 32.9 27.0133 32.7 26.56C32.5 26.0933 32.4 25.6067 32.4 25.1C32.4 24.5667 32.5 24.0733 32.7 23.62C32.9 23.1533 33.1733 22.7467 33.52 22.4C33.8667 22.0533 34.2667 21.78 34.72 21.58C35.1867 21.38 35.6867 21.28 36.22 21.28H41.88C42.0267 21.28 42.16 21.34 42.28 21.46C42.4 21.58 42.46 21.7133 42.46 21.86C42.46 22.0067 42.4 22.14 42.28 22.26C42.16 22.38 42.0267 22.44 41.88 22.44H36.22C35.8467 22.44 35.5 22.5133 35.18 22.66C34.8733 22.7933 34.6 22.98 34.36 23.22C34.12 23.46 33.9267 23.74 33.78 24.06C33.6467 24.3667 33.58 24.7067 33.58 25.08C33.58 25.44 33.6467 25.78 33.78 26.1C33.9267 26.4067 34.12 26.68 34.36 26.92V26.96C34.6 27.2 34.8733 27.3867 35.18 27.52C35.5 27.6533 35.8467 27.72 36.22 27.72H39.02C39.66 27.72 40.2533 27.8467 40.8 28.1C41.36 28.34 41.8467 28.6733 42.26 29.1C42.6733 29.5133 43 30 43.24 30.56C43.4933 31.1067 43.62 31.7 43.62 32.34C43.62 32.9933 43.4933 33.6 43.24 34.16C43 34.7067 42.6733 35.1933 42.26 35.62C41.8333 36.0467 41.34 36.3867 40.78 36.64C40.2333 36.88 39.6333 37 38.98 37H32.98L33 36.98ZM54.1002 21.38C55.1802 21.38 56.1802 21.58 57.1002 21.98C58.0468 22.3533 58.8935 22.9133 59.6402 23.66C59.7602 23.78 59.8202 23.92 59.8202 24.08C59.8202 24.24 59.7602 24.3733 59.6402 24.48C59.5335 24.6 59.4002 24.66 59.2402 24.66C59.0802 24.66 58.9402 24.6 58.8202 24.48C58.1935 23.8667 57.4735 23.3867 56.6602 23.04C55.8602 22.6933 55.0068 22.52 54.1002 22.52H54.0602C53.1402 22.52 52.2802 22.6933 51.4802 23.04C50.6802 23.3867 49.9735 23.86 49.3602 24.46C48.7602 25.0733 48.2868 25.7867 47.9402 26.6C47.5935 27.4 47.4202 28.26 47.4202 29.18C47.4202 30.1 47.5935 30.9667 47.9402 31.78C48.2868 32.58 48.7602 33.28 49.3602 33.88C49.9735 34.4933 50.6802 34.9733 51.4802 35.32C52.2935 35.6667 53.1602 35.84 54.0802 35.84C54.9868 35.84 55.8402 35.6667 56.6402 35.32C57.4668 34.9733 58.1868 34.4867 58.8002 33.86C58.9202 33.7533 59.0602 33.7 59.2202 33.7C59.3802 33.7 59.5135 33.7533 59.6202 33.86C59.7402 33.98 59.8002 34.12 59.8002 34.28C59.8002 34.44 59.7402 34.5733 59.6202 34.68C59.2602 35.04 58.8668 35.3733 58.4402 35.68C58.0135 35.9733 57.5602 36.2133 57.0802 36.4C56.6135 36.5867 56.1268 36.74 55.6202 36.86C55.1268 36.9667 54.6135 37.02 54.0802 37.02C53.0002 37.02 51.9868 36.8133 51.0402 36.4C50.0935 35.9867 49.2668 35.42 48.5602 34.7H48.5202C47.8135 33.9933 47.2535 33.1667 46.8402 32.22C46.4402 31.2733 46.2402 30.26 46.2402 29.18C46.2402 28.0867 46.4402 27.0667 46.8402 26.12C47.2535 25.1733 47.8135 24.34 48.5202 23.62C49.2402 22.9133 50.0735 22.36 51.0202 21.96C51.9802 21.5467 53.0002 21.34 54.0802 21.34L54.1002 21.38ZM67.2047 21.7C67.3247 21.4067 67.498 21.26 67.7247 21.26C67.9647 21.2467 68.1447 21.3933 68.2647 21.7L74.1247 36.18C74.1914 36.3267 74.1914 36.4733 74.1247 36.62C74.058 36.7667 73.9514 36.8667 73.8047 36.92C73.658 36.9867 73.5114 36.9933 73.3647 36.94C73.218 36.8733 73.118 36.7667 73.0647 36.62L67.7447 23.44L62.4047 36.62C62.3514 36.7667 62.2514 36.8733 62.1047 36.94C61.958 36.9933 61.8114 36.9867 61.6647 36.92C61.518 36.8667 61.4114 36.7667 61.3447 36.62C61.2914 36.4733 61.2914 36.3267 61.3447 36.18L67.2047 21.7ZM77.8514 36.4C77.8514 36.5467 77.7914 36.68 77.6714 36.8C77.5514 36.92 77.4181 36.98 77.2714 36.98C77.1247 36.98 76.9914 36.92 76.8714 36.8C76.7514 36.68 76.6914 36.5467 76.6914 36.4V21.88C76.6914 21.7333 76.7514 21.6 76.8714 21.48C76.9914 21.36 77.1247 21.3 77.2714 21.3H83.2714C83.9247 21.3 84.5247 21.4267 85.0714 21.68C85.6314 21.92 86.1247 22.2533 86.5514 22.68C86.9647 23.0933 87.2914 23.58 87.5314 24.14C87.7847 24.6867 87.9114 25.28 87.9114 25.92C87.9114 26.5733 87.7847 27.18 87.5314 27.74C87.2914 28.3 86.9647 28.7867 86.5514 29.2C86.1781 29.5867 85.7381 29.9 85.2314 30.14C84.7247 30.3667 84.1914 30.4933 83.6314 30.52C83.6047 30.5467 83.5581 30.56 83.4914 30.56H80.8314L87.6714 35.94C87.7914 36.0467 87.8647 36.18 87.8914 36.34C87.9181 36.5 87.8781 36.64 87.7714 36.76C87.6647 36.9067 87.5381 36.9867 87.3914 37C87.2447 37.0267 87.0981 36.9867 86.9514 36.88L78.8114 30.48C78.6514 30.36 78.5714 30.2 78.5714 30C78.5714 29.8267 78.6247 29.6867 78.7314 29.58C78.8381 29.4733 78.9781 29.42 79.1514 29.42H83.2714C83.7514 29.42 84.2047 29.3333 84.6314 29.16C85.0581 28.9733 85.4247 28.72 85.7314 28.4C86.0381 28.0933 86.2847 27.7267 86.4714 27.3C86.6581 26.8733 86.7514 26.42 86.7514 25.94C86.7514 25.46 86.6581 25.0133 86.4714 24.6C86.2847 24.1733 86.0381 23.8067 85.7314 23.5C85.4247 23.18 85.0581 22.9333 84.6314 22.76C84.2047 22.5733 83.7514 22.48 83.2714 22.48H77.8514V36.42V36.4ZM93.0663 36.42C93.0663 36.5667 93.0063 36.7 92.8863 36.82C92.7663 36.94 92.6329 37 92.4863 37C92.3129 37 92.1729 36.94 92.0663 36.82C91.9596 36.7 91.9063 36.5667 91.9063 36.42V21.9C91.9063 21.7533 91.9596 21.62 92.0663 21.5C92.1729 21.38 92.3129 21.32 92.4863 21.32H98.4863C99.1263 21.32 99.7263 21.4467 100.286 21.7C100.846 21.94 101.34 22.2733 101.766 22.7C102.18 23.1133 102.506 23.6 102.746 24.16C102.986 24.7067 103.106 25.3 103.106 25.94C103.106 26.5933 102.986 27.2 102.746 27.76C102.506 28.32 102.18 28.8067 101.766 29.22C101.38 29.6067 100.933 29.92 100.426 30.16C99.9329 30.3867 99.3929 30.5133 98.8063 30.54C98.7796 30.5667 98.7396 30.58 98.6863 30.58H94.3263C94.1796 30.58 94.0529 30.52 93.9463 30.4C93.8396 30.28 93.7863 30.1467 93.7863 30C93.7863 29.8267 93.8396 29.6867 93.9463 29.58C94.0529 29.4733 94.1796 29.42 94.3263 29.42H98.4863C98.9663 29.42 99.4129 29.3333 99.8263 29.16C100.253 28.9733 100.626 28.72 100.946 28.4C101.253 28.0933 101.493 27.7267 101.666 27.3C101.853 26.8733 101.946 26.42 101.946 25.94C101.946 25.46 101.853 25.0133 101.666 24.6C101.493 24.1733 101.253 23.8067 100.946 23.5C100.626 23.18 100.253 22.9333 99.8263 22.76C99.4129 22.5733 98.9663 22.48 98.4863 22.48H93.0663V36.42ZM109.041 21.7C109.161 21.4067 109.334 21.26 109.561 21.26C109.801 21.2467 109.981 21.3933 110.101 21.7L115.961 36.18C116.027 36.3267 116.027 36.4733 115.961 36.62C115.894 36.7667 115.787 36.8667 115.641 36.92C115.494 36.9867 115.347 36.9933 115.201 36.94C115.054 36.8733 114.954 36.7667 114.901 36.62L109.581 23.44L104.241 36.62C104.187 36.7667 104.087 36.8733 103.941 36.94C103.794 36.9933 103.647 36.9867 103.501 36.92C103.354 36.8667 103.247 36.7667 103.181 36.62C103.127 36.4733 103.127 36.3267 103.181 36.18L109.041 21.7ZM119.687 36.4C119.687 36.5467 119.627 36.68 119.507 36.8C119.387 36.92 119.254 36.98 119.107 36.98C118.961 36.98 118.827 36.92 118.707 36.8C118.587 36.68 118.527 36.5467 118.527 36.4V21.88C118.527 21.7333 118.587 21.6 118.707 21.48C118.827 21.36 118.961 21.3 119.107 21.3H125.107C125.761 21.3 126.361 21.4267 126.907 21.68C127.467 21.92 127.961 22.2533 128.387 22.68C128.801 23.0933 129.127 23.58 129.367 24.14C129.621 24.6867 129.747 25.28 129.747 25.92C129.747 26.5733 129.621 27.18 129.367 27.74C129.127 28.3 128.801 28.7867 128.387 29.2C128.014 29.5867 127.574 29.9 127.067 30.14C126.561 30.3667 126.027 30.4933 125.467 30.52C125.441 30.5467 125.394 30.56 125.327 30.56H122.667L129.507 35.94C129.627 36.0467 129.701 36.18 129.727 36.34C129.754 36.5 129.714 36.64 129.607 36.76C129.501 36.9067 129.374 36.9867 129.227 37C129.081 37.0267 128.934 36.9867 128.787 36.88L120.647 30.48C120.487 30.36 120.407 30.2 120.407 30C120.407 29.8267 120.461 29.6867 120.567 29.58C120.674 29.4733 120.814 29.42 120.987 29.42H125.107C125.587 29.42 126.041 29.3333 126.467 29.16C126.894 28.9733 127.261 28.72 127.567 28.4C127.874 28.0933 128.121 27.7267 128.307 27.3C128.494 26.8733 128.587 26.42 128.587 25.94C128.587 25.46 128.494 25.0133 128.307 24.6C128.121 24.1733 127.874 23.8067 127.567 23.5C127.261 23.18 126.894 22.9333 126.467 22.76C126.041 22.5733 125.587 22.48 125.107 22.48H119.687V36.42V36.4ZM133.742 21.9C133.742 21.7533 133.796 21.62 133.902 21.5C134.009 21.38 134.149 21.32 134.322 21.32C134.469 21.32 134.602 21.38 134.722 21.5C134.842 21.62 134.902 21.7533 134.902 21.9V36.42C134.902 36.5667 134.842 36.7 134.722 36.82C134.602 36.94 134.469 37 134.322 37C134.149 37 134.009 36.94 133.902 36.82C133.796 36.7 133.742 36.5667 133.742 36.42V21.9Z"
    fill="white" />
  <path
    d="M33.02 1.84L33.52 1.84069V1.84H33.02ZM33.2 1.44L33.5536 1.79355V1.79355L33.2 1.44ZM41.1 1.56L40.8982 2.01748L40.903 2.01957L41.1 1.56ZM42.36 2.42L42.7274 2.08086L42.7206 2.07351L42.7136 2.06645L42.36 2.42ZM43.14 3.62L42.6825 3.82183L42.6848 3.8269L43.14 3.62ZM43.14 6.54L43.5975 6.74183L43.5996 6.73696L43.14 6.54ZM42.32 7.74L41.9664 7.38645L41.82 7.53289V7.74H42.32ZM42.32 7.78L42.6454 8.15963L42.82 8.00997V7.78H42.32ZM41.74 8.24L41.4443 7.8368L40.8377 8.28169L41.4828 8.66875L41.74 8.24ZM42.32 8.64L42.0111 9.03316L42.0201 9.04022L42.0294 9.04687L42.32 8.64ZM42.86 9.1L42.5064 9.4536L42.5121 9.45912L42.86 9.1ZM43.86 10.56L43.4004 10.757L43.4033 10.7636L43.4063 10.7702L43.86 10.56ZM43.86 14.16L43.4044 13.9539L43.4022 13.959L43.86 14.16ZM42.86 15.62L42.5064 15.2664L42.5009 15.2721L42.86 15.62ZM41.4 16.64L41.597 17.0997L41.6061 17.0956L41.4 16.64ZM33 16.42L32.5 16.4193V16.42H33ZM40.68 7.5L40.8794 7.95862L40.8883 7.95453L40.68 7.5ZM41.52 6.92L41.8736 7.27355H41.8736L41.52 6.92ZM42.08 6.1L41.6254 5.89163L41.6215 5.90064L42.08 6.1ZM42.1 4.06L41.6384 4.25233L41.6415 4.25936L42.1 4.06ZM41.56 3.22L41.9235 2.87669L41.7755 2.72H41.56V3.22ZM41.52 3.22L41.1664 3.57355L41.3129 3.72H41.52V3.22ZM40.68 2.66L40.4643 3.11107L40.4758 3.1166L40.4877 3.12154L40.68 2.66ZM34.2 2.44V1.94H33.7V2.44H34.2ZM34.2 15.8H33.7V16.3H34.2V15.8ZM40.98 15.52L41.1804 15.9781L40.98 15.52ZM42.08 14.78L41.734 14.4189L41.7264 14.4264L42.08 14.78ZM42.82 13.68L42.3618 13.4795L42.3568 13.4918L42.82 13.68ZM42.82 10.98L42.3568 11.1682L42.3604 11.1771L42.3643 11.1858L42.82 10.98ZM42.08 9.88L41.719 10.226L41.7264 10.2336L41.734 10.241L42.08 9.88ZM40.98 9.14L40.7742 9.59569L40.7829 9.59963L40.7918 9.60323L40.98 9.14ZM33.52 1.84C33.52 1.83874 33.5201 1.83799 33.5201 1.83767C33.5201 1.83749 33.5201 1.83738 33.5201 1.83733C33.5201 1.83728 33.5202 1.83726 33.5202 1.83726C33.5202 1.83726 33.5202 1.83725 33.5202 1.83723C33.5202 1.8372 33.5202 1.83713 33.5202 1.837C33.5203 1.83677 33.5205 1.83618 33.521 1.83518C33.5224 1.83188 33.5296 1.81748 33.5536 1.79355L32.8464 1.08645C32.6486 1.28427 32.52 1.53976 32.52 1.84H33.52ZM33.5536 1.79355C33.5775 1.76962 33.5919 1.76245 33.5952 1.76096C33.5962 1.76051 33.5968 1.7603 33.597 1.76023C33.5971 1.76019 33.5972 1.76017 33.5972 1.76016C33.5973 1.76015 33.5973 1.76015 33.5973 1.76015C33.5973 1.76015 33.5973 1.76015 33.5973 1.76014C33.5974 1.76013 33.5975 1.76011 33.5977 1.7601C33.598 1.76006 33.5987 1.76 33.6 1.76V0.759999C33.2998 0.759999 33.0443 0.888621 32.8464 1.08645L33.5536 1.79355ZM33.6 1.76H39.62V0.759999H33.6V1.76ZM39.62 1.76C40.0892 1.76 40.5132 1.8476 40.8982 2.01746L41.3018 1.10254C40.7802 0.872395 40.2175 0.759999 39.62 0.759999V1.76ZM40.903 2.01957C41.3134 2.19542 41.6664 2.43347 41.9664 2.73355L42.6736 2.02645C42.2803 1.6332 41.82 1.32458 41.297 1.10043L40.903 2.01957ZM41.9664 2.73355L42.0064 2.77355L42.7136 2.06645L42.6736 2.02645L41.9664 2.73355ZM41.9926 2.75914C42.2734 3.06331 42.5037 3.41636 42.6825 3.82182L43.5975 3.41818C43.3763 2.91698 43.0866 2.47003 42.7274 2.08086L41.9926 2.75914ZM42.6848 3.8269C42.8523 4.19547 42.94 4.61059 42.94 5.08H43.94C43.94 4.48274 43.8277 3.92453 43.5952 3.4131L42.6848 3.8269ZM42.94 5.08C42.94 5.51881 42.8538 5.93848 42.6804 6.34304L43.5996 6.73696C43.8262 6.20819 43.94 5.65452 43.94 5.08H42.94ZM42.6825 6.33818C42.5072 6.73556 42.2689 7.08397 41.9664 7.38645L42.6736 8.09355C43.0644 7.70269 43.3728 7.2511 43.5975 6.74182L42.6825 6.33818ZM41.82 7.74V7.78H42.82V7.74H41.82ZM41.9946 7.40037C41.8176 7.55207 41.6342 7.69754 41.4443 7.8368L42.0357 8.6432C42.2458 8.48912 42.449 8.32793 42.6454 8.15963L41.9946 7.40037ZM41.4828 8.66875C41.6645 8.77779 41.8406 8.89919 42.0111 9.03316L42.6289 8.24684C42.4261 8.08747 42.2155 7.94221 41.9972 7.81125L41.4828 8.66875ZM42.0294 9.04687C42.1922 9.16314 42.3513 9.29837 42.5064 9.45355L43.2136 8.74645C43.0221 8.55496 42.8212 8.38352 42.6106 8.23313L42.0294 9.04687ZM42.5121 9.45912C42.8899 9.82514 43.1859 10.2563 43.4004 10.757L44.3196 10.363C44.0541 9.74372 43.6834 9.20152 43.2079 8.74088L42.5121 9.45912ZM43.4063 10.7702C43.6273 11.247 43.74 11.768 43.74 12.34H44.74C44.74 11.632 44.5994 10.9664 44.3137 10.3498L43.4063 10.7702ZM43.74 12.34C43.74 12.9268 43.6267 13.4627 43.4044 13.9539L44.3156 14.3661C44.6 13.7373 44.74 13.0598 44.74 12.34H43.74ZM43.4022 13.959C43.1874 14.4482 42.8897 14.8832 42.5064 15.2664L43.2136 15.9736C43.6837 15.5034 44.0526 14.9652 44.3178 14.361L43.4022 13.959ZM42.5009 15.2721C42.1328 15.652 41.6986 15.9561 41.1939 16.1844L41.6061 17.0956C42.2214 16.8172 42.7605 16.4413 43.2191 15.9679L42.5009 15.2721ZM41.203 16.1804C40.7097 16.3919 40.1706 16.5 39.58 16.5V17.5C40.2961 17.5 40.9703 17.3681 41.597 17.0996L41.203 16.1804ZM39.58 16.5H33.58V17.5H39.58V16.5ZM33.58 16.5C33.5787 16.5 33.578 16.4999 33.5777 16.4999C33.5775 16.4999 33.5774 16.4999 33.5773 16.4999C33.5773 16.4999 33.5773 16.4998 33.5773 16.4998C33.5773 16.4998 33.5773 16.4998 33.5772 16.4998C33.5772 16.4998 33.5771 16.4998 33.577 16.4998C33.5768 16.4997 33.5762 16.4995 33.5752 16.499C33.5719 16.4976 33.5575 16.4904 33.5336 16.4664L32.8264 17.1736C33.0243 17.3714 33.2798 17.5 33.58 17.5V16.5ZM33.5336 16.4664C33.5096 16.4425 33.5024 16.4281 33.501 16.4248C33.5005 16.4238 33.5003 16.4232 33.5002 16.423C33.5002 16.4229 33.5002 16.4228 33.5002 16.4228C33.5002 16.4227 33.5002 16.4227 33.5002 16.4227C33.5002 16.4227 33.5001 16.4227 33.5001 16.4227C33.5001 16.4226 33.5001 16.4225 33.5001 16.4223C33.5001 16.422 33.5 16.4213 33.5 16.42H32.5C32.5 16.7202 32.6286 16.9757 32.8264 17.1736L33.5336 16.4664ZM33.5 16.4207L33.52 1.84069L32.52 1.83931L32.5 16.4193L33.5 16.4207ZM35.4 8.36C35.3855 8.36 35.3759 8.35875 35.3703 8.35767C35.3648 8.35662 35.3624 8.3556 35.362 8.35543C35.3616 8.35528 35.3615 8.35523 35.361 8.35485C35.3604 8.35443 35.3579 8.35253 35.3537 8.34782L34.6063 9.01218C34.816 9.24813 35.0966 9.36 35.4 9.36V8.36ZM35.3537 8.34782C35.3201 8.30998 35.32 8.29223 35.32 8.28H34.32C34.32 8.5611 34.4266 8.81002 34.6063 9.01218L35.3537 8.34782ZM35.32 8.28C35.32 8.26777 35.3201 8.25002 35.3537 8.21218L34.6063 7.54782C34.4266 7.74998 34.32 7.9989 34.32 8.28H35.32ZM35.3537 8.21218C35.3579 8.20747 35.3604 8.20557 35.361 8.20514C35.3615 8.20477 35.3616 8.20471 35.362 8.20457C35.3624 8.2044 35.3648 8.20338 35.3703 8.20233C35.3759 8.20125 35.3855 8.2 35.4 8.2V7.2C35.0966 7.2 34.816 7.31187 34.6063 7.54782L35.3537 8.21218ZM35.4 8.2H39.66V7.2H35.4V8.2ZM39.66 8.2C40.0939 8.2 40.5028 8.12224 40.8794 7.95853L40.4806 7.04146C40.2438 7.14443 39.9727 7.2 39.66 7.2V8.2ZM40.8883 7.95453C41.2603 7.78404 41.59 7.55713 41.8736 7.27355L41.1664 6.56645C40.97 6.76287 40.7397 6.92263 40.4717 7.04547L40.8883 7.95453ZM41.8736 7.27355C42.1572 6.98988 42.3798 6.66443 42.5385 6.29936L41.6215 5.90064C41.5135 6.1489 41.3628 6.37012 41.1664 6.56645L41.8736 7.27355ZM42.5345 6.30833C42.7119 5.92145 42.8 5.51022 42.8 5.08H41.8C41.8 5.36978 41.7415 5.63855 41.6255 5.89167L42.5345 6.30833ZM42.8 5.08C42.8 4.64608 42.7222 4.23716 42.5585 3.86064L41.6415 4.25936C41.7444 4.49617 41.8 4.76726 41.8 5.08H42.8ZM42.5615 3.86769C42.4061 3.49467 42.1938 3.16285 41.9235 2.87669L41.1965 3.56331C41.3796 3.75715 41.5272 3.98533 41.6385 4.25231L42.5615 3.86769ZM41.56 2.72H41.52V3.72H41.56V2.72ZM41.8736 2.86645C41.5864 2.57927 41.2513 2.35636 40.8723 2.19846L40.4877 3.12154C40.7487 3.2303 40.9736 3.38073 41.1664 3.57355L41.8736 2.86645ZM40.8957 2.20893C40.5153 2.02699 40.1006 1.94 39.66 1.94V2.94C39.9661 2.94 40.2314 2.99967 40.4643 3.11107L40.8957 2.20893ZM39.66 1.94H34.2V2.94H39.66V1.94ZM33.7 2.44V15.8H34.7V2.44H33.7ZM34.2 16.3H39.62V15.3H34.2V16.3ZM39.62 16.3C40.1668 16.3 40.6886 16.1933 41.1804 15.9781L40.7796 15.0619C40.4181 15.2201 40.0332 15.3 39.62 15.3V16.3ZM41.1804 15.9781C41.6599 15.7683 42.0796 15.4875 42.4336 15.1336L41.7264 14.4264C41.467 14.6859 41.1534 14.8984 40.7796 15.0619L41.1804 15.9781ZM42.426 15.141C42.7988 14.7837 43.0845 14.3575 43.2832 13.8682L42.3568 13.4918C42.2089 13.8559 42.0012 14.163 41.734 14.419L42.426 15.141ZM43.2781 13.8804C43.4932 13.3886 43.6 12.8668 43.6 12.32H42.6C42.6 12.7332 42.5201 13.1181 42.3619 13.4796L43.2781 13.8804ZM43.6 12.32C43.6 11.7733 43.4932 11.256 43.2757 10.7742L42.3643 11.1858C42.5201 11.5307 42.6 11.9067 42.6 12.32H43.6ZM43.2832 10.7918C43.0845 10.3025 42.7988 9.87629 42.426 9.51901L41.734 10.241C42.0012 10.497 42.2089 10.8041 42.3568 11.1682L43.2832 10.7918ZM42.441 9.53405C42.0837 9.16123 41.6575 8.87553 41.1682 8.67677L40.7918 9.60323C41.1559 9.75113 41.463 9.95877 41.719 10.226L42.441 9.53405ZM41.1858 8.68431C40.704 8.46675 40.1867 8.36 39.64 8.36V9.36C40.0533 9.36 40.4293 9.43992 40.7742 9.59569L41.1858 8.68431ZM39.64 8.36H35.38V9.36H39.64V8.36ZM35.38 9.36H35.4V8.36H35.38V9.36ZM48.7456 16.8L48.3921 16.4464L48.7456 16.8ZM47.9456 16.8L48.2992 16.4464L47.9456 16.8ZM56.1456 1.68L55.9354 2.13365L55.942 2.13671L55.9487 2.13957L56.1456 1.68ZM58.6056 4.14L58.1461 4.33696L58.1489 4.34364L58.152 4.35023L58.6056 4.14ZM58.6056 7.74L58.15 7.53387L58.1461 7.54304L58.6056 7.74ZM57.6256 9.2L57.272 8.84639L57.2659 8.8527L57.6256 9.2ZM56.3056 10.14L56.5099 10.5965L56.5197 10.5919L56.3056 10.14ZM54.7056 10.52L54.6818 10.0206L54.4888 10.0298L54.3521 10.1664L54.7056 10.52ZM51.9056 10.56V10.06H50.4612L51.5965 10.953L51.9056 10.56ZM58.7456 15.94L59.0778 15.5663L59.0666 15.5563L59.0547 15.547L58.7456 15.94ZM58.9656 16.34L58.4724 16.4222V16.4222L58.9656 16.34ZM58.8456 16.76L58.4719 16.4278L58.4557 16.4461L58.4413 16.4659L58.8456 16.76ZM58.4656 17L58.4204 16.5021L58.3981 16.5041L58.3762 16.5081L58.4656 17ZM58.0256 16.88L57.7166 17.2731L57.724 17.2789L57.7315 17.2844L58.0256 16.88ZM49.8856 10.48L50.1947 10.0868L50.1856 10.08L49.8856 10.48ZM49.8056 9.58L49.4521 9.22645L49.8056 9.58ZM55.7056 9.16L55.8939 9.6234L55.906 9.61808L55.7056 9.16ZM56.8056 8.4L56.452 8.04637L56.4446 8.05405L56.8056 8.4ZM57.5456 4.6L57.0875 4.80042L57.0899 4.80579L57.5456 4.6ZM56.8056 3.5L56.4445 3.84603L56.4521 3.85355L56.8056 3.5ZM55.7056 2.76L55.5051 3.21824L55.5174 3.22323L55.7056 2.76ZM48.9256 2.48V1.98H48.4256V2.48H48.9256ZM48.4256 16.4C48.4256 16.4013 48.4256 16.402 48.4255 16.4023C48.4255 16.4025 48.4255 16.4026 48.4255 16.4027C48.4255 16.4027 48.4255 16.4027 48.4255 16.4027C48.4255 16.4027 48.4255 16.4027 48.4255 16.4028C48.4255 16.4028 48.4254 16.4029 48.4254 16.403C48.4253 16.4032 48.4251 16.4038 48.4247 16.4048C48.4232 16.4081 48.416 16.4225 48.3921 16.4464L49.0992 17.1536C49.297 16.9557 49.4256 16.7002 49.4256 16.4H48.4256ZM48.3921 16.4464C48.3681 16.4704 48.3537 16.4776 48.3504 16.479C48.3494 16.4795 48.3489 16.4797 48.3486 16.4798C48.3485 16.4798 48.3484 16.4798 48.3484 16.4798C48.3484 16.4798 48.3484 16.4798 48.3484 16.4798C48.3484 16.4798 48.3483 16.4799 48.3483 16.4799C48.3482 16.4799 48.3481 16.4799 48.348 16.4799C48.3476 16.4799 48.3469 16.48 48.3456 16.48V17.48C48.6459 17.48 48.9014 17.3514 49.0992 17.1536L48.3921 16.4464ZM48.3456 16.48C48.3444 16.48 48.3436 16.4799 48.3433 16.4799C48.3431 16.4799 48.343 16.4799 48.343 16.4799C48.3429 16.4799 48.3429 16.4798 48.3429 16.4798C48.3429 16.4798 48.3429 16.4798 48.3429 16.4798C48.3428 16.4798 48.3428 16.4798 48.3426 16.4798C48.3424 16.4797 48.3418 16.4795 48.3408 16.479C48.3375 16.4776 48.3231 16.4704 48.2992 16.4464L47.5921 17.1536C47.7899 17.3514 48.0454 17.48 48.3456 17.48V16.48ZM48.2992 16.4464C48.2752 16.4225 48.2681 16.4081 48.2666 16.4048C48.2661 16.4038 48.2659 16.4032 48.2659 16.403C48.2658 16.4029 48.2658 16.4028 48.2658 16.4028C48.2658 16.4027 48.2658 16.4027 48.2658 16.4027C48.2658 16.4027 48.2658 16.4027 48.2658 16.4027C48.2658 16.4026 48.2657 16.4025 48.2657 16.4023C48.2657 16.402 48.2656 16.4013 48.2656 16.4H47.2656C47.2656 16.7002 47.3942 16.9557 47.5921 17.1536L48.2992 16.4464ZM48.2656 16.4V1.88H47.2656V16.4H48.2656ZM48.2656 1.88C48.2656 1.87874 48.2657 1.87799 48.2657 1.87767C48.2657 1.87749 48.2658 1.87738 48.2658 1.87733C48.2658 1.87728 48.2658 1.87726 48.2658 1.87726C48.2658 1.87726 48.2658 1.87725 48.2658 1.87723C48.2658 1.8772 48.2658 1.87713 48.2659 1.877C48.2659 1.87677 48.2661 1.87618 48.2666 1.87518C48.2681 1.87188 48.2752 1.85748 48.2992 1.83355L47.5921 1.12645C47.3942 1.32427 47.2656 1.57976 47.2656 1.88H48.2656ZM48.2992 1.83355C48.3231 1.80962 48.3375 1.80245 48.3408 1.80096C48.3418 1.80051 48.3424 1.80031 48.3426 1.80023C48.3428 1.80019 48.3428 1.80017 48.3429 1.80016C48.3429 1.80015 48.3429 1.80015 48.3429 1.80015C48.3429 1.80015 48.3429 1.80015 48.343 1.80014C48.343 1.80013 48.3431 1.80011 48.3433 1.8001C48.3436 1.80006 48.3444 1.8 48.3456 1.8V0.799999C48.0454 0.799999 47.7899 0.928622 47.5921 1.12645L48.2992 1.83355ZM48.3456 1.8H54.3456V0.799999H48.3456V1.8ZM54.3456 1.8C54.9326 1.8 55.46 1.91336 55.9354 2.13365L56.3559 1.22634C55.7379 0.939972 55.0654 0.799999 54.3456 0.799999V1.8ZM55.9487 2.13957C56.4508 2.35476 56.8908 2.65231 57.2721 3.03355L57.9792 2.32645C57.5071 1.85435 56.9605 1.48523 56.3426 1.22043L55.9487 2.13957ZM57.2721 3.03355C57.6385 3.40001 57.93 3.83291 58.1461 4.33696L59.0652 3.94304C58.8012 3.32709 58.4394 2.78665 57.9792 2.32645L57.2721 3.03355ZM58.152 4.35023C58.3729 4.82696 58.4856 5.348 58.4856 5.92H59.4856C59.4856 5.212 59.345 4.54637 59.0593 3.92977L58.152 4.35023ZM58.4856 5.92C58.4856 6.50682 58.3723 7.0427 58.1501 7.53392L59.0612 7.94608C59.3456 7.3173 59.4856 6.63985 59.4856 5.92H58.4856ZM58.1461 7.54304C57.93 8.04709 57.6385 8.47999 57.2721 8.84645L57.9792 9.55355C58.4394 9.09335 58.8012 8.55291 59.0652 7.93696L58.1461 7.54304ZM57.2659 8.8527C56.9362 9.19417 56.5462 9.4728 56.0916 9.68813L56.5197 10.5919C57.0784 10.3272 57.5683 9.97917 57.9853 9.5473L57.2659 8.8527ZM56.1014 9.68359C55.6523 9.88453 55.1802 9.99683 54.6818 10.0206L54.7294 11.0194C55.3511 10.9898 55.9456 10.8488 56.5098 10.5964L56.1014 9.68359ZM54.3521 10.1664C54.4137 10.1049 54.4778 10.0794 54.5133 10.0692C54.5477 10.0594 54.5685 10.06 54.5656 10.06V11.06C54.6711 11.06 54.8885 11.0442 55.0592 10.8736L54.3521 10.1664ZM54.5656 10.06H51.9056V11.06H54.5656V10.06ZM51.5965 10.953L58.4365 16.333L59.0547 15.547L52.2147 10.167L51.5965 10.953ZM58.4134 16.3137C58.4471 16.3436 58.4643 16.3736 58.4724 16.4222L59.4588 16.2578C59.4136 15.9864 59.2842 15.7497 59.0778 15.5663L58.4134 16.3137ZM58.4724 16.4222C58.4731 16.4264 58.4734 16.4294 58.4735 16.4313C58.4737 16.4331 58.4736 16.434 58.4736 16.4341C58.4736 16.4341 58.4737 16.4334 58.4739 16.4321C58.4741 16.4309 58.4744 16.4293 58.4749 16.4276C58.4759 16.4239 58.4772 16.4214 58.4776 16.4206C58.478 16.4199 58.4767 16.4224 58.4719 16.4278L59.2193 17.0922C59.4276 16.8579 59.51 16.5651 59.4588 16.2578L58.4724 16.4222ZM58.4413 16.4659C58.4295 16.4821 58.42 16.4925 58.4135 16.4989C58.4071 16.5051 58.4036 16.5072 58.4036 16.5073C58.4036 16.5073 58.4042 16.5069 58.4055 16.5063C58.4067 16.5057 58.4083 16.505 58.4103 16.5043C58.4145 16.5029 58.4182 16.5023 58.4204 16.5021L58.5109 17.4979C58.8335 17.4686 59.0799 17.288 59.25 17.0541L58.4413 16.4659ZM58.3762 16.5081C58.3759 16.5081 58.3769 16.5079 58.3783 16.508C58.3797 16.5081 58.3796 16.5083 58.3772 16.5076C58.3724 16.5063 58.3533 16.5 58.3197 16.4756L57.7315 17.2844C57.963 17.4527 58.2456 17.5482 58.5551 17.4919L58.3762 16.5081ZM58.3347 16.4869L50.1947 10.0869L49.5766 10.8731L57.7166 17.2731L58.3347 16.4869ZM50.1856 10.08C50.1603 10.061 50.1542 10.0491 50.1528 10.0464C50.1515 10.0437 50.1456 10.0316 50.1456 10H49.1456C49.1456 10.3574 49.2997 10.6656 49.5856 10.88L50.1856 10.08ZM50.1456 10C50.1456 9.96476 50.151 9.94798 50.1529 9.943C50.1543 9.93934 50.1553 9.93739 50.1592 9.93355L49.4521 9.22645C49.2375 9.44103 49.1456 9.7155 49.1456 10H50.1456ZM50.1592 9.93355C50.163 9.92971 50.165 9.92864 50.1686 9.92724C50.1736 9.92535 50.1904 9.92 50.2256 9.92V8.92C49.9411 8.92 49.6667 9.01187 49.4521 9.22645L50.1592 9.93355ZM50.2256 9.92H54.3456V8.92H50.2256V9.92ZM54.3456 9.92C54.8874 9.92 55.4049 9.82187 55.8938 9.62323L55.5174 8.69677C55.1531 8.8448 54.7639 8.92 54.3456 8.92V9.92ZM55.906 9.61808C56.39 9.40635 56.812 9.11594 57.1666 8.74595L56.4446 8.05405C56.1859 8.32405 55.8746 8.54031 55.5052 8.70192L55.906 9.61808ZM57.1592 8.75355C57.5131 8.39964 57.7939 7.97994 58.0037 7.50041L57.0875 7.09959C56.924 7.47339 56.7115 7.78703 56.4521 8.04645L57.1592 8.75355ZM58.0037 7.50041C58.2189 7.00859 58.3256 6.48681 58.3256 5.94H57.3256C57.3256 6.35319 57.2457 6.73808 57.0875 7.09959L58.0037 7.50041ZM58.3256 5.94C58.3256 5.39326 58.2189 4.87596 58.0013 4.39421L57.0899 4.80579C57.2457 5.15071 57.3256 5.52674 57.3256 5.94H58.3256ZM58.0037 4.39959C57.7939 3.92006 57.5131 3.50036 57.1592 3.14645L56.4521 3.85355C56.7115 4.11297 56.924 4.42661 57.0875 4.80041L58.0037 4.39959ZM57.1666 3.15405C56.8093 2.78123 56.3831 2.49553 55.8938 2.29677L55.5174 3.22323C55.8815 3.37113 56.1886 3.57877 56.4446 3.84595L57.1666 3.15405ZM55.906 2.30192C55.4142 2.08675 54.8924 1.98 54.3456 1.98V2.98C54.7588 2.98 55.1437 3.05992 55.5052 3.21808L55.906 2.30192ZM54.3456 1.98H48.9256V2.98H54.3456V1.98ZM48.4256 2.48V16.42H49.4256V2.48H48.4256ZM49.4256 16.42V16.4H48.4256V16.42H49.4256ZM68.9205 15.82V15.32H68.7134L68.5669 15.4664L68.9205 15.82ZM70.7805 15.44L70.5822 14.981L70.5784 14.9827L70.7805 15.44ZM72.3005 14.42L72.654 14.7736L72.3005 14.42ZM73.3205 12.9L72.8614 12.7018L72.8592 12.7069L73.3205 12.9ZM74.6805 1.5L75.034 1.14645V1.14645L74.6805 1.5ZM74.4005 13.34L73.9404 13.144L73.9374 13.1514L74.4005 13.34ZM73.1205 15.26L73.4654 15.6222L73.474 15.6136L73.1205 15.26ZM71.2205 16.54L71.4195 16.9987L71.4267 16.9955L71.2205 16.54ZM66.6005 16.54L66.3974 16.997L66.4045 17L66.6005 16.54ZM64.7205 15.26L64.3669 15.6136L64.7205 15.26ZM63.4205 13.36L62.9586 13.5517L62.9618 13.559L63.4205 13.36ZM64.4805 12.92L64.0214 13.1182L64.0231 13.1221L64.4805 12.92ZM65.5205 14.44L65.874 14.0864L65.5205 14.44ZM67.0205 15.46L66.8184 15.9174L66.8223 15.919L67.0205 15.46ZM68.9005 15.84V16.34H69.1076L69.254 16.1936L68.9005 15.84ZM68.9205 16.32C69.6522 16.32 70.3416 16.1806 70.9826 15.8973L70.5784 14.9827C70.0727 15.2061 69.522 15.32 68.9205 15.32V16.32ZM70.9787 15.899C71.6199 15.6222 72.1801 15.2475 72.654 14.7736L71.9469 14.0664C71.5675 14.4459 71.1144 14.7512 70.5823 14.981L70.9787 15.899ZM72.654 14.7736C73.14 14.2876 73.5165 13.7265 73.7817 13.0931L72.8592 12.7069C72.6444 13.2202 72.341 13.6724 71.9469 14.0664L72.654 14.7736ZM73.7795 13.0982C74.061 12.4463 74.2005 11.7518 74.2005 11.02H73.2005C73.2005 11.6215 73.0866 12.1804 72.8614 12.7018L73.7795 13.0982ZM74.2005 11.02V1.9H73.2005V11.02H74.2005ZM74.2005 1.9C74.2005 1.89874 74.2005 1.89799 74.2006 1.89767C74.2006 1.89749 74.2006 1.89738 74.2006 1.89733C74.2006 1.89728 74.2006 1.89726 74.2006 1.89726C74.2006 1.89726 74.2006 1.89725 74.2006 1.89723C74.2006 1.8972 74.2007 1.89713 74.2007 1.897C74.2008 1.89677 74.201 1.89618 74.2014 1.89518C74.2029 1.89188 74.2101 1.87748 74.234 1.85355L73.5269 1.14645C73.3291 1.34427 73.2005 1.59976 73.2005 1.9H74.2005ZM74.234 1.85355C74.258 1.82962 74.2724 1.82245 74.2757 1.82096C74.2766 1.82051 74.2772 1.8203 74.2775 1.82023C74.2776 1.82019 74.2777 1.82017 74.2777 1.82016C74.2777 1.82015 74.2777 1.82015 74.2777 1.82015C74.2777 1.82015 74.2778 1.82015 74.2778 1.82014C74.2779 1.82013 74.278 1.82011 74.2781 1.8201C74.2785 1.82006 74.2792 1.82 74.2805 1.82V0.819999C73.9802 0.819999 73.7247 0.948622 73.5269 1.14645L74.234 1.85355ZM74.2805 1.82C74.2817 1.82 74.2825 1.82006 74.2828 1.8201C74.283 1.82011 74.2831 1.82013 74.2831 1.82014C74.2832 1.82015 74.2832 1.82015 74.2832 1.82015C74.2832 1.82015 74.2832 1.82015 74.2832 1.82016C74.2833 1.82017 74.2833 1.82019 74.2835 1.82023C74.2837 1.8203 74.2843 1.82051 74.2853 1.82096C74.2886 1.82245 74.303 1.82962 74.3269 1.85355L75.034 1.14645C74.8362 0.948621 74.5807 0.819999 74.2805 0.819999V1.82ZM74.3269 1.85355C74.3508 1.87748 74.358 1.89188 74.3595 1.89518C74.36 1.89618 74.3602 1.89677 74.3602 1.897C74.3603 1.89712 74.3603 1.8972 74.3603 1.89723C74.3603 1.89725 74.3603 1.89726 74.3603 1.89726C74.3603 1.89726 74.3603 1.89728 74.3603 1.89733C74.3603 1.89738 74.3604 1.89749 74.3604 1.89767C74.3604 1.89799 74.3605 1.89874 74.3605 1.9H75.3605C75.3605 1.59976 75.2318 1.34427 75.034 1.14645L74.3269 1.85355ZM74.3605 1.9V11.02H75.3605V1.9H74.3605ZM74.3605 11.02C74.3605 11.7832 74.2193 12.4895 73.9405 13.1441L74.8605 13.5359C75.195 12.7505 75.3605 11.9101 75.3605 11.02H74.3605ZM73.9374 13.1514C73.6697 13.8085 73.2807 14.3927 72.7669 14.9064L73.474 15.6136C74.0802 15.0073 74.5446 14.3115 74.8635 13.5286L73.9374 13.1514ZM72.7756 14.8979C72.2564 15.3925 71.6699 15.7876 71.0142 16.0845L71.4267 16.9955C72.1843 16.6524 72.8645 16.1942 73.4653 15.6221L72.7756 14.8979ZM71.0214 16.0813C70.3821 16.3588 69.6837 16.5 68.9205 16.5V17.5C69.8105 17.5 70.6455 17.3346 71.4195 16.9987L71.0214 16.0813ZM68.9205 16.5C68.1573 16.5 67.451 16.3588 66.7964 16.08L66.4045 17C67.1899 17.3345 68.0303 17.5 68.9205 17.5V16.5ZM66.8035 16.0831C66.1371 15.7869 65.562 15.3945 65.074 14.9064L64.3669 15.6136C64.9456 16.1922 65.6239 16.6531 66.3974 16.9969L66.8035 16.0831ZM65.074 14.9064C64.5572 14.3896 64.1601 13.8083 63.8791 13.161L62.9618 13.559C63.2942 14.325 63.7637 15.0104 64.3669 15.6136L65.074 14.9064ZM63.8823 13.1683C63.6165 12.5281 63.4805 11.8207 63.4805 11.04H62.4805C62.4805 11.9393 62.6378 12.7786 62.9587 13.5517L63.8823 13.1683ZM63.4805 11.04V1.92H62.4805V11.04H63.4805ZM63.4805 1.92C63.4805 1.90777 63.4805 1.89002 63.5142 1.85218L62.7668 1.18782C62.5871 1.38998 62.4805 1.6389 62.4805 1.92H63.4805ZM63.5142 1.85218C63.5184 1.84746 63.5209 1.84557 63.5215 1.84514C63.522 1.84477 63.5221 1.84471 63.5224 1.84457C63.5228 1.8444 63.5253 1.84338 63.5308 1.84233C63.5364 1.84125 63.546 1.84 63.5605 1.84V0.839999C63.2571 0.839999 62.9765 0.951866 62.7668 1.18782L63.5142 1.85218ZM63.5605 1.84C63.5628 1.84 63.5622 1.84021 63.5595 1.83962C63.5567 1.83901 63.5538 1.838 63.5514 1.83687C63.5491 1.83577 63.5491 1.8354 63.5513 1.83714C63.5537 1.83897 63.559 1.84344 63.5668 1.85218L64.3142 1.18782C64.1227 0.972409 63.8645 0.839999 63.5605 0.839999V1.84ZM63.5668 1.85218C63.6004 1.89002 63.6005 1.90777 63.6005 1.92H64.6005C64.6005 1.6389 64.4939 1.38998 64.3142 1.18782L63.5668 1.85218ZM63.6005 1.92V11.04H64.6005V1.92H63.6005ZM63.6005 11.04C63.6005 11.7718 63.7399 12.4663 64.0214 13.1182L64.9395 12.7218C64.7144 12.2004 64.6005 11.6415 64.6005 11.04H63.6005ZM64.0231 13.1221C64.3012 13.7515 64.6829 14.3096 65.1669 14.7936L65.874 14.0864C65.478 13.6904 65.1664 13.2352 64.9378 12.7179L64.0231 13.1221ZM65.1669 14.7936C65.6389 15.2656 66.1908 15.64 66.8184 15.9173L67.2225 15.0027C66.7035 14.7733 66.2553 14.4678 65.874 14.0864L65.1669 14.7936ZM66.8223 15.919C67.4742 16.2006 68.1686 16.34 68.9005 16.34V15.34C68.299 15.34 67.7401 15.2261 67.2187 15.001L66.8223 15.919ZM69.254 16.1936L69.274 16.1736L68.5669 15.4664L68.5469 15.4864L69.254 16.1936ZM79.9194 1.6L79.4853 1.84807L79.5009 1.87542L79.5198 1.90059L79.9194 1.6ZM89.7594 14.68L89.3598 14.9806L90.2594 16.1763V14.68H89.7594ZM90.7594 1.5L91.1331 1.16782L91.1331 1.16782L90.7594 1.5ZM90.7594 16.82L91.1331 17.1522H91.1331L90.7594 16.82ZM89.8594 16.72L90.2935 16.4719L90.2779 16.4446L90.2589 16.4194L89.8594 16.72ZM80.0194 3.64L80.4189 3.33941L79.5194 2.14366V3.64H80.0194ZM79.3594 1.9C79.3594 1.88777 79.3594 1.87002 79.3931 1.83218L78.6457 1.16782C78.466 1.36998 78.3594 1.6189 78.3594 1.9H79.3594ZM79.3931 1.83218C79.3973 1.82746 79.3998 1.82557 79.4004 1.82514C79.4009 1.82477 79.401 1.82471 79.4013 1.82457C79.4017 1.8244 79.4042 1.82338 79.4097 1.82233C79.4153 1.82125 79.4249 1.82 79.4394 1.82V0.819999C79.136 0.819999 78.8554 0.931867 78.6457 1.16782L79.3931 1.83218ZM79.4394 1.82C79.4562 1.82 79.4651 1.82183 79.4681 1.82257C79.4707 1.82322 79.4698 1.82328 79.4674 1.82189C79.4651 1.82051 79.465 1.81989 79.4673 1.82233C79.4699 1.82505 79.4764 1.83259 79.4853 1.84807L80.3535 1.35193C80.1587 1.01098 79.8339 0.819999 79.4394 0.819999V1.82ZM79.5198 1.90059L89.3598 14.9806L90.1589 14.3794L80.3189 1.29941L79.5198 1.90059ZM90.2594 14.68V1.9H89.2594V14.68H90.2594ZM90.2594 1.9C90.2594 1.89874 90.2594 1.89799 90.2595 1.89767C90.2595 1.89749 90.2595 1.89738 90.2595 1.89733C90.2595 1.89728 90.2595 1.89726 90.2595 1.89726C90.2595 1.89726 90.2595 1.89725 90.2595 1.89723C90.2595 1.8972 90.2596 1.89713 90.2596 1.897C90.2597 1.89677 90.2599 1.89618 90.2603 1.89518C90.2618 1.89188 90.269 1.87748 90.2929 1.85355L89.5858 1.14645C89.388 1.34427 89.2594 1.59976 89.2594 1.9H90.2594ZM90.2929 1.85355C90.3169 1.82962 90.3313 1.82245 90.3346 1.82096C90.3356 1.82051 90.3361 1.8203 90.3364 1.82023C90.3365 1.82019 90.3366 1.82017 90.3366 1.82016C90.3366 1.82015 90.3366 1.82015 90.3366 1.82015C90.3366 1.82015 90.3367 1.82015 90.3367 1.82014C90.3368 1.82013 90.3369 1.82011 90.337 1.8201C90.3374 1.82006 90.3381 1.82 90.3394 1.82V0.819999C90.0391 0.819999 89.7836 0.948622 89.5858 1.14645L90.2929 1.85355ZM90.3394 1.82C90.3538 1.82 90.3635 1.82125 90.3691 1.82233C90.3746 1.82338 90.377 1.8244 90.3774 1.82457C90.3778 1.82472 90.3779 1.82477 90.3784 1.82514C90.379 1.82557 90.3815 1.82746 90.3857 1.83218L91.1331 1.16782C90.9233 0.931866 90.6427 0.819999 90.3394 0.819999V1.82ZM90.3857 1.83218C90.4193 1.87002 90.4194 1.88777 90.4194 1.9H91.4194C91.4194 1.6189 91.3128 1.36998 91.1331 1.16782L90.3857 1.83218ZM90.4194 1.9V16.42H91.4194V1.9H90.4194ZM90.4194 16.42C90.4194 16.4322 90.4193 16.45 90.3857 16.4878L91.1331 17.1522C91.3128 16.95 91.4194 16.7011 91.4194 16.42H90.4194ZM90.3857 16.4878C90.3815 16.4925 90.379 16.4944 90.3784 16.4949C90.3779 16.4952 90.3778 16.4953 90.3774 16.4954C90.377 16.4956 90.3746 16.4966 90.3691 16.4977C90.3635 16.4988 90.3538 16.5 90.3394 16.5V17.5C90.6427 17.5 90.9233 17.3881 91.1331 17.1522L90.3857 16.4878ZM90.3394 16.5C90.3225 16.5 90.3136 16.4982 90.3106 16.4974C90.308 16.4968 90.3089 16.4967 90.3113 16.4981C90.3137 16.4995 90.3138 16.5001 90.3114 16.4977C90.3089 16.495 90.3023 16.4874 90.2935 16.4719L89.4253 16.9681C89.6201 17.309 89.9449 17.5 90.3394 17.5V16.5ZM90.2589 16.4194L80.4189 3.33941L79.6198 3.94059L89.4598 17.0206L90.2589 16.4194ZM79.5194 3.64V16.42H80.5194V3.64H79.5194ZM79.5194 16.42C79.5194 16.4213 79.5193 16.422 79.5193 16.4223C79.5193 16.4225 79.5192 16.4226 79.5192 16.4227C79.5192 16.4227 79.5192 16.4227 79.5192 16.4227C79.5192 16.4227 79.5192 16.4227 79.5192 16.4228C79.5192 16.4228 79.5192 16.4229 79.5191 16.423C79.5191 16.4232 79.5189 16.4238 79.5184 16.4248C79.5169 16.4281 79.5098 16.4425 79.4858 16.4664L80.1929 17.1736C80.3908 16.9757 80.5194 16.7202 80.5194 16.42H79.5194ZM79.4858 16.4664C79.4619 16.4904 79.4475 16.4976 79.4442 16.499C79.4432 16.4995 79.4426 16.4997 79.4424 16.4998C79.4422 16.4998 79.4422 16.4998 79.4421 16.4998C79.4421 16.4998 79.4421 16.4998 79.4421 16.4998C79.4421 16.4998 79.4421 16.4999 79.442 16.4999C79.442 16.4999 79.4419 16.4999 79.4417 16.4999C79.4414 16.4999 79.4406 16.5 79.4394 16.5V17.5C79.7396 17.5 79.9951 17.3714 80.1929 17.1736L79.4858 16.4664ZM79.4394 16.5C79.4249 16.5 79.4153 16.4988 79.4097 16.4977C79.4042 16.4966 79.4017 16.4956 79.4013 16.4954C79.401 16.4953 79.4009 16.4952 79.4004 16.4949C79.3998 16.4944 79.3973 16.4925 79.3931 16.4878L78.6457 17.1522C78.8554 17.3881 79.136 17.5 79.4394 17.5V16.5ZM79.3931 16.4878C79.3594 16.45 79.3594 16.4322 79.3594 16.42H78.3594C78.3594 16.7011 78.466 16.95 78.6457 17.1522L79.3931 16.4878ZM79.3594 16.42V1.9H78.3594V16.42H79.3594ZM99.1741 3L98.978 2.54003L98.9753 2.54122L99.1741 3ZM97.0541 4.42L96.7043 4.0625L96.6966 4.07035L97.0541 4.42ZM95.6341 6.56L96.0928 6.75881L96.094 6.75605L95.6341 6.56ZM95.6341 11.74L95.1741 11.9361L95.1753 11.9388L95.6341 11.74ZM97.0541 13.84L97.4076 13.4864L97.0541 13.84ZM99.1741 15.28L98.9753 15.7388L98.978 15.74L99.1741 15.28ZM104.354 15.28L104.158 14.82L104.155 14.8212L104.354 15.28ZM106.474 13.84L106.124 13.4825L106.117 13.4904L106.474 13.84ZM107.914 11.74L108.373 11.9388L108.374 11.936L107.914 11.74ZM107.914 6.56L107.454 6.75605L107.455 6.7588L107.914 6.56ZM104.354 3L104.155 3.45879L104.158 3.45996L104.354 3ZM98.7141 16.38L98.514 16.8382L98.7141 16.38ZM96.2141 14.68L95.8605 15.0336L96.2141 14.68ZM94.5341 12.2L94.0735 12.3946L94.0758 12.4001L94.5341 12.2ZM94.5341 6.1L94.0758 5.89991L94.0735 5.90539L94.5341 6.1ZM96.2141 3.6L95.8638 3.2431L95.8572 3.24977L96.2141 3.6ZM98.7141 1.94L98.9087 2.40061L98.9141 2.39823L98.7141 1.94ZM104.794 1.94L104.592 2.39724L104.599 2.40057L104.794 1.94ZM107.294 3.6L107.648 3.24643L107.644 3.24316L107.294 3.6ZM108.974 6.1L108.513 6.29462L108.516 6.30007L108.974 6.1ZM108.974 12.2L108.516 11.9999L108.513 12.0054L108.974 12.2ZM107.294 14.68L106.944 14.3231L106.941 14.3264L107.294 14.68ZM104.794 16.38L104.594 15.9218L104.592 15.9228L104.794 16.38ZM101.774 1.98C100.789 1.98 99.8559 2.16588 98.978 2.54004L99.3701 3.45996C100.119 3.14079 100.919 2.98 101.774 2.98V1.98ZM98.9753 2.54122C98.1201 2.91178 97.3621 3.41916 96.7044 4.06258L97.4037 4.77742C97.9727 4.22083 98.628 3.78156 99.3729 3.45878L98.9753 2.54122ZM96.6966 4.07035C96.0519 4.72943 95.5444 5.49527 95.1741 6.36395L96.094 6.75605C96.4171 5.99807 96.8562 5.33724 97.4115 4.76965L96.6966 4.07035ZM95.1753 6.3612C94.7999 7.22738 94.6141 8.15545 94.6141 9.14H95.6141C95.6141 8.28455 95.7749 7.49262 96.0928 6.7588L95.1753 6.3612ZM94.6141 9.14C94.6141 10.1246 94.7999 11.0582 95.1741 11.936L96.094 11.544C95.7748 10.7951 95.6141 9.99541 95.6141 9.14H94.6141ZM95.1753 11.9388C95.5463 12.7949 96.0548 13.5478 96.7005 14.1936L97.4076 13.4864C96.8533 12.9322 96.4152 12.2851 96.0928 11.5412L95.1753 11.9388ZM96.7005 14.1936C97.3586 14.8516 98.1178 15.3672 98.9753 15.7388L99.3729 14.8212C98.6303 14.4994 97.9762 14.055 97.4076 13.4864L96.7005 14.1936ZM98.978 15.74C99.8559 16.1141 100.789 16.3 101.774 16.3V15.3C100.919 15.3 100.119 15.1392 99.3701 14.82L98.978 15.74ZM101.774 16.3C102.759 16.3 103.687 16.1141 104.553 15.7388L104.155 14.8212C103.421 15.1392 102.63 15.3 101.774 15.3V16.3ZM104.55 15.74C105.422 15.3683 106.184 14.8515 106.831 14.1896L106.117 13.4904C105.564 14.0552 104.913 14.4984 104.158 14.82L104.55 15.74ZM106.824 14.1974C107.484 13.5514 108.001 12.7973 108.373 11.9388L107.455 11.5412C107.134 12.2827 106.691 12.9286 106.124 13.4826L106.824 14.1974ZM108.374 11.936C108.748 11.0582 108.934 10.1246 108.934 9.14H107.934C107.934 9.99541 107.773 10.7951 107.454 11.544L108.374 11.936ZM108.934 9.14C108.934 8.15545 108.748 7.22738 108.373 6.3612L107.455 6.7588C107.773 7.49262 107.934 8.28455 107.934 9.14H108.934ZM108.374 6.36395C108.003 5.49296 107.487 4.72588 106.828 4.06645L106.121 4.77355C106.688 5.34079 107.132 6.00038 107.454 6.75605L108.374 6.36395ZM106.828 4.06645C106.181 3.41934 105.42 2.91071 104.55 2.54004L104.158 3.45996C104.915 3.78263 105.568 4.22066 106.121 4.77355L106.828 4.06645ZM104.553 2.54122C103.687 2.16588 102.759 1.98 101.774 1.98V2.98C102.63 2.98 103.421 3.14079 104.155 3.45878L104.553 2.54122ZM101.774 16.5C100.745 16.5 99.7941 16.306 98.9141 15.9218L98.514 16.8382C99.5274 17.2807 100.616 17.5 101.774 17.5V16.5ZM98.9141 15.9218C98.0239 15.5331 97.2428 15.0016 96.5676 14.3264L95.8605 15.0336C96.6253 15.7984 97.5109 16.4003 98.514 16.8382L98.9141 15.9218ZM96.5676 14.3264C95.9066 13.6654 95.3815 12.8913 94.9923 11.9999L94.0758 12.4001C94.5133 13.402 95.1082 14.2812 95.8605 15.0336L96.5676 14.3264ZM94.9946 12.0054C94.622 11.1234 94.4341 10.1766 94.4341 9.16H93.4341C93.4341 10.3034 93.6462 11.3832 94.0735 12.3946L94.9946 12.0054ZM94.4341 9.16C94.4341 8.12919 94.6223 7.17583 94.9946 6.29461L94.0735 5.90539C93.6458 6.91751 93.4341 8.00414 93.4341 9.16H94.4341ZM94.9923 6.30007C95.3819 5.40785 95.9079 4.62572 96.5709 3.95023L95.8572 3.24977C95.1069 4.01427 94.5129 4.89881 94.0758 5.89993L94.9923 6.30007ZM96.5643 3.95684C97.2386 3.29507 98.0188 2.77656 98.9087 2.40057L98.5195 1.47943C97.516 1.90344 96.6296 2.4916 95.8638 3.24316L96.5643 3.95684ZM98.9141 2.39823C99.7941 2.01404 100.745 1.82 101.774 1.82V0.819999C100.616 0.819999 99.5274 1.0393 98.514 1.48177L98.9141 2.39823ZM101.774 1.82C102.788 1.82 103.726 2.0137 104.592 2.39717L104.997 1.48282C103.996 1.03963 102.92 0.819999 101.774 0.819999V1.82ZM104.599 2.40057C105.489 2.77656 106.27 3.29507 106.944 3.95684L107.644 3.24316C106.879 2.4916 105.992 1.90344 104.989 1.47943L104.599 2.40057ZM106.941 3.95355C107.614 4.62753 108.138 5.40676 108.513 6.29461L109.435 5.90539C109.01 4.89991 108.414 4.01247 107.648 3.24645L106.941 3.95355ZM108.516 6.30007C108.9 7.17999 109.094 8.13143 109.094 9.16H110.094C110.094 8.00191 109.875 6.91334 109.432 5.89993L108.516 6.30007ZM109.094 9.16C109.094 10.1743 108.9 11.1192 108.516 11.9999L109.432 12.4001C109.874 11.3874 110.094 10.3057 110.094 9.16H109.094ZM108.513 12.0054C108.139 12.8924 107.616 13.6636 106.944 14.3232L107.644 15.0368C108.412 14.283 109.009 13.4009 109.435 12.3946L108.513 12.0054ZM106.941 14.3264C106.265 15.0016 105.484 15.5331 104.594 15.9218L104.994 16.8382C105.997 16.4003 106.883 15.7984 107.648 15.0336L106.941 14.3264ZM104.592 15.9228C103.726 16.3063 102.788 16.5 101.774 16.5V17.5C102.92 17.5 103.996 17.2804 104.997 16.8372L104.592 15.9228ZM33 36.98L33.3536 37.3336L34.2071 36.48H33V36.98ZM32.6 36.8L32.9536 36.4464H32.9536L32.6 36.8ZM32.6 35.98L32.9322 36.3537H32.9322L32.6 35.98ZM40.36 35.54L40.5604 35.9981L40.36 35.54ZM41.46 34.8L41.1064 34.4464L41.46 34.8ZM42.2 31L41.7419 31.2004L41.7443 31.2058L42.2 31ZM41.46 29.9L41.0989 30.246L41.1064 30.2536L41.46 29.9ZM40.36 29.16L40.1542 29.6157L40.1629 29.6196L40.1718 29.6232L40.36 29.16ZM34.74 28.6L34.5447 29.0603L34.5496 29.0623L34.74 28.6ZM33.56 27.8L33.2064 28.1536H33.2064L33.56 27.8ZM33.52 27.76L33.1664 28.1136L33.1664 28.1136L33.52 27.76ZM32.7 26.56L32.2404 26.757L32.2425 26.7618L32.7 26.56ZM32.7 23.62L33.1575 23.8218L33.1596 23.817L32.7 23.62ZM33.52 22.4L33.8736 22.7536H33.8736L33.52 22.4ZM34.72 21.58L34.523 21.1204L34.5182 21.1225L34.72 21.58ZM35.18 22.66L35.3794 23.1186L35.3883 23.1145L35.18 22.66ZM34.36 23.22L34.7136 23.5736H34.7136L34.36 23.22ZM33.78 24.06L33.3254 23.8516L33.3215 23.8606L33.78 24.06ZM33.78 26.1L33.3185 26.2923L33.3234 26.3042L33.3289 26.3157L33.78 26.1ZM34.36 26.92H34.86V26.7129L34.7136 26.5664L34.36 26.92ZM34.36 26.96H33.86V27.1671L34.0064 27.3136L34.36 26.96ZM35.18 27.52L34.9806 27.9786L34.9877 27.9815L35.18 27.52ZM40.8 28.1L40.5898 28.5537L40.5964 28.5567L40.603 28.5596L40.8 28.1ZM42.26 29.1L41.9008 29.4479L41.9064 29.4536L42.26 29.1ZM43.24 30.56L42.7804 30.757L42.7833 30.7636L42.7863 30.7702L43.24 30.56ZM43.24 34.16L42.7844 33.9539L42.7822 33.959L43.24 34.16ZM42.26 35.62L42.6136 35.9736L42.6191 35.9679L42.26 35.62ZM40.78 36.64L40.981 37.0979L40.9861 37.0956L40.78 36.64ZM32.98 37L32.6264 36.6464L31.7729 37.5H32.98V37ZM33 36.48C32.9987 36.48 32.998 36.4799 32.9977 36.4799C32.9975 36.4799 32.9974 36.4799 32.9973 36.4799C32.9973 36.4799 32.9973 36.4799 32.9973 36.4798C32.9973 36.4798 32.9973 36.4798 32.9972 36.4798C32.9972 36.4798 32.9971 36.4798 32.997 36.4798C32.9968 36.4797 32.9962 36.4795 32.9952 36.479C32.9919 36.4776 32.9775 36.4704 32.9536 36.4464L32.2464 37.1536C32.4443 37.3514 32.6998 37.48 33 37.48V36.48ZM32.9536 36.4464C32.9296 36.4225 32.9224 36.4081 32.921 36.4048C32.9205 36.4038 32.9203 36.4032 32.9202 36.403C32.9202 36.4029 32.9202 36.4028 32.9202 36.4028C32.9202 36.4027 32.9202 36.4027 32.9202 36.4027C32.9202 36.4027 32.9201 36.4027 32.9201 36.4027C32.9201 36.4026 32.9201 36.4025 32.9201 36.4023C32.9201 36.402 32.92 36.4013 32.92 36.4H31.92C31.92 36.7002 32.0486 36.9557 32.2464 37.1536L32.9536 36.4464ZM32.92 36.4C32.92 36.3855 32.9212 36.3759 32.9223 36.3703C32.9234 36.3648 32.9244 36.3624 32.9246 36.362C32.9247 36.3616 32.9248 36.3615 32.9251 36.361C32.9256 36.3604 32.9275 36.3579 32.9322 36.3537L32.2678 35.6063C32.0319 35.816 31.92 36.0966 31.92 36.4H32.92ZM32.9322 36.3537C32.97 36.3201 32.9878 36.32 33 36.32V35.32C32.7189 35.32 32.47 35.4266 32.2678 35.6063L32.9322 36.3537ZM33 36.32H39V35.32H33V36.32ZM39 36.32C39.5468 36.32 40.0686 36.2132 40.5604 35.9981L40.1596 35.0819C39.7981 35.2401 39.4132 35.32 39 35.32V36.32ZM40.5604 35.9981C41.0399 35.7883 41.4596 35.5075 41.8136 35.1536L41.1064 34.4464C40.847 34.7059 40.5334 34.9184 40.1596 35.0819L40.5604 35.9981ZM41.8136 35.1536C42.1675 34.7996 42.4483 34.3799 42.6581 33.9004L41.7419 33.4996C41.5784 33.8734 41.3659 34.187 41.1064 34.4464L41.8136 35.1536ZM42.6581 33.9004C42.8733 33.4086 42.98 32.8868 42.98 32.34H41.98C41.98 32.7532 41.9001 33.1381 41.7419 33.4996L42.6581 33.9004ZM42.98 32.34C42.98 31.7933 42.8733 31.276 42.6557 30.7942L41.7443 31.2058C41.9001 31.5507 41.98 31.9267 41.98 32.34H42.98ZM42.6581 30.7996C42.4483 30.3201 42.1675 29.9004 41.8136 29.5464L41.1064 30.2536C41.3659 30.513 41.5784 30.8266 41.7419 31.2004L42.6581 30.7996ZM41.821 29.554C41.4637 29.1812 41.0375 28.8955 40.5482 28.6968L40.1718 29.6232C40.5359 29.7711 40.843 29.9788 41.099 30.246L41.821 29.554ZM40.5658 28.7043C40.084 28.4867 39.5667 28.38 39.02 28.38V29.38C39.4333 29.38 39.8093 29.4599 40.1542 29.6157L40.5658 28.7043ZM39.02 28.38H36.22V29.38H39.02V28.38ZM36.22 28.38C35.7462 28.38 35.3182 28.2974 34.9304 28.1377L34.5496 29.0623C35.0685 29.276 35.6271 29.38 36.22 29.38V28.38ZM34.9353 28.1397C34.5559 27.9788 34.216 27.7489 33.9136 27.4464L33.2064 28.1536C33.5973 28.5444 34.0441 28.8479 34.5447 29.0603L34.9353 28.1397ZM33.9136 27.4464L33.8736 27.4064L33.1664 28.1136L33.2064 28.1536L33.9136 27.4464ZM33.8736 27.4064C33.5711 27.104 33.3328 26.7556 33.1575 26.3582L32.2425 26.7618C32.4672 27.2711 32.7756 27.7227 33.1664 28.1136L33.8736 27.4064ZM33.1596 26.363C32.9862 25.9585 32.9 25.5388 32.9 25.1H31.9C31.9 25.6745 32.0138 26.2282 32.2404 26.757L33.1596 26.363ZM32.9 25.1C32.9 24.6308 32.9876 24.2068 33.1575 23.8218L32.2425 23.4182C32.0124 23.9398 31.9 24.5025 31.9 25.1H32.9ZM33.1596 23.817C33.3354 23.4066 33.5735 23.0536 33.8736 22.7536L33.1664 22.0464C32.7732 22.4397 32.4646 22.9 32.2404 23.423L33.1596 23.817ZM33.8736 22.7536C34.176 22.4511 34.5244 22.2128 34.9218 22.0375L34.5182 21.1225C34.0089 21.3472 33.5573 21.6556 33.1664 22.0464L33.8736 22.7536ZM34.917 22.0396C35.3183 21.8676 35.7509 21.78 36.22 21.78V20.78C35.6224 20.78 35.0551 20.8924 34.523 21.1204L34.917 22.0396ZM36.22 21.78H41.88V20.78H36.22V21.78ZM41.88 21.78C41.8813 21.78 41.882 21.7801 41.8823 21.7801C41.8825 21.7801 41.8826 21.7801 41.8827 21.7801C41.8827 21.7801 41.8827 21.7802 41.8827 21.7802C41.8827 21.7802 41.8827 21.7802 41.8828 21.7802C41.8828 21.7802 41.8829 21.7802 41.883 21.7802C41.8832 21.7803 41.8838 21.7805 41.8848 21.781C41.8881 21.7824 41.9025 21.7896 41.9264 21.8136L42.6336 21.1064C42.4357 20.9086 42.1802 20.78 41.88 20.78V21.78ZM41.9264 21.8136C41.9504 21.8375 41.9576 21.8519 41.959 21.8552C41.9595 21.8562 41.9597 21.8568 41.9598 21.857C41.9598 21.8571 41.9598 21.8572 41.9598 21.8572C41.9598 21.8573 41.9598 21.8573 41.9598 21.8573C41.9598 21.8573 41.9599 21.8573 41.9599 21.8573C41.9599 21.8574 41.9599 21.8575 41.9599 21.8577C41.9599 21.858 41.96 21.8587 41.96 21.86H42.96C42.96 21.5598 42.8314 21.3043 42.6336 21.1064L41.9264 21.8136ZM41.96 21.86C41.96 21.8613 41.9599 21.862 41.9599 21.8623C41.9599 21.8625 41.9599 21.8626 41.9599 21.8627C41.9599 21.8627 41.9598 21.8627 41.9598 21.8627C41.9598 21.8627 41.9598 21.8627 41.9598 21.8628C41.9598 21.8628 41.9598 21.8629 41.9598 21.863C41.9597 21.8632 41.9595 21.8638 41.959 21.8648C41.9576 21.8681 41.9504 21.8825 41.9264 21.9064L42.6336 22.6136C42.8314 22.4157 42.96 22.1602 42.96 21.86H41.96ZM41.9264 21.9064C41.9025 21.9304 41.8881 21.9376 41.8848 21.939C41.8838 21.9395 41.8832 21.9397 41.883 21.9398C41.8829 21.9398 41.8828 21.9398 41.8828 21.9398C41.8827 21.9398 41.8827 21.9398 41.8827 21.9398C41.8827 21.9398 41.8827 21.9399 41.8827 21.9399C41.8826 21.9399 41.8825 21.9399 41.8823 21.9399C41.882 21.9399 41.8813 21.94 41.88 21.94V22.94C42.1802 22.94 42.4357 22.8114 42.6336 22.6136L41.9264 21.9064ZM41.88 21.94H36.22V22.94H41.88V21.94ZM36.22 21.94C35.7792 21.94 35.361 22.027 34.9717 22.2055L35.3883 23.1145C35.639 22.9996 35.9141 22.94 36.22 22.94V21.94ZM34.9806 22.2015C34.6156 22.3602 34.2901 22.5828 34.0064 22.8664L34.7136 23.5736C34.9099 23.3772 35.1311 23.2265 35.3794 23.1185L34.9806 22.2015ZM34.0064 22.8664C33.7229 23.15 33.496 23.4797 33.3255 23.8517L34.2345 24.2683C34.3574 24.0003 34.5171 23.77 34.7136 23.5736L34.0064 22.8664ZM33.3215 23.8606C33.1578 24.2372 33.08 24.6461 33.08 25.08H34.08C34.08 24.7673 34.1356 24.4962 34.2385 24.2594L33.3215 23.8606ZM33.08 25.08C33.08 25.5034 33.1588 25.909 33.3185 26.2923L34.2415 25.9077C34.1346 25.651 34.08 25.3766 34.08 25.08H33.08ZM33.3289 26.3157C33.5 26.6735 33.7263 26.9934 34.0064 27.2736L34.7136 26.5664C34.5137 26.3666 34.3533 26.1399 34.2311 25.8843L33.3289 26.3157ZM33.86 26.92V26.96H34.86V26.92H33.86ZM34.0064 27.3136C34.2901 27.5972 34.6156 27.8198 34.9806 27.9785L35.3794 27.0615C35.1311 26.9535 34.9099 26.8028 34.7136 26.6064L34.0064 27.3136ZM34.9877 27.9815C35.3732 28.1422 35.7858 28.22 36.22 28.22V27.22C35.9076 27.22 35.6268 27.1645 35.3723 27.0585L34.9877 27.9815ZM36.22 28.22H39.02V27.22H36.22V28.22ZM39.02 28.22C39.592 28.22 40.113 28.3327 40.5898 28.5537L41.0102 27.6463C40.3936 27.3606 39.728 27.22 39.02 27.22V28.22ZM40.603 28.5596C41.1037 28.7741 41.5349 29.0701 41.9009 29.4479L42.6191 28.7521C42.1585 28.2766 41.6163 27.9059 40.997 27.6404L40.603 28.5596ZM41.9064 29.4536C42.2729 29.82 42.5644 30.2529 42.7804 30.757L43.6996 30.363C43.4356 29.7471 43.0738 29.2067 42.6136 28.7464L41.9064 29.4536ZM42.7863 30.7702C43.0073 31.247 43.12 31.768 43.12 32.34H44.12C44.12 31.632 43.9794 30.9664 43.6937 30.3498L42.7863 30.7702ZM43.12 32.34C43.12 32.9268 43.0067 33.4627 42.7844 33.9539L43.6956 34.3661C43.98 33.7373 44.12 33.0598 44.12 32.34H43.12ZM42.7822 33.959C42.566 34.4515 42.2726 34.8884 41.9009 35.2721L42.6191 35.9679C43.074 35.4983 43.434 34.9618 43.6978 34.361L42.7822 33.959ZM41.9064 35.2664C41.5232 35.6497 41.0801 35.9555 40.5739 36.1844L40.9861 37.0956C41.5999 36.8179 42.1435 36.4436 42.6136 35.9736L41.9064 35.2664ZM40.579 36.1822C40.1015 36.3918 39.5707 36.5 38.98 36.5V37.5C39.6959 37.5 40.3652 37.3682 40.981 37.0978L40.579 36.1822ZM38.98 36.5H32.98V37.5H38.98V36.5ZM33.3336 37.3536L33.3536 37.3336L32.6464 36.6264L32.6264 36.6464L33.3336 37.3536ZM54.1002 21.38L53.6529 21.6036L53.7911 21.88H54.1002V21.38ZM57.1002 21.98L56.9008 22.4385L56.9087 22.442L56.9167 22.4451L57.1002 21.98ZM59.6402 24.48L59.308 24.1063L59.286 24.1258L59.2665 24.1478L59.6402 24.48ZM58.8202 24.48L59.1737 24.1264L59.1699 24.1227L58.8202 24.48ZM56.6602 23.04L56.4613 23.4988L56.4641 23.5L56.6602 23.04ZM51.4802 23.04L51.679 23.4988L51.4802 23.04ZM49.3602 24.46L49.0104 24.1025L49.0027 24.1104L49.3602 24.46ZM47.9402 26.6L48.3989 26.7988L48.4001 26.796L47.9402 26.6ZM47.9402 31.78L47.4802 31.9761L47.4814 31.9788L47.9402 31.78ZM49.3602 33.88L49.0066 34.2336L49.3602 33.88ZM51.4802 35.32L51.2813 35.7788L51.2841 35.78L51.4802 35.32ZM56.6402 35.32L56.4468 34.8589L56.4414 34.8612L56.6402 35.32ZM58.8002 33.86L58.468 33.4863L58.455 33.4978L58.4428 33.5103L58.8002 33.86ZM59.6202 33.86L59.9737 33.5064L59.6202 33.86ZM59.6202 34.68L59.288 34.3063L59.277 34.3161L59.2666 34.3264L59.6202 34.68ZM58.4402 35.68L58.7235 36.0921L58.732 36.086L58.4402 35.68ZM57.0802 36.4L56.8989 35.934L56.8945 35.9358L57.0802 36.4ZM55.6202 36.86L55.7258 37.3488L55.7354 37.3465L55.6202 36.86ZM51.0402 36.4L50.8401 36.8582L51.0402 36.4ZM48.5602 34.7L48.917 34.3498L48.77 34.2H48.5602V34.7ZM48.5202 34.7L48.1666 35.0536L48.313 35.2H48.5202V34.7ZM46.8402 32.22L46.3796 32.4146L46.3819 32.4201L46.8402 32.22ZM46.8402 26.12L46.3819 25.9199L46.3796 25.9254L46.8402 26.12ZM48.5202 23.62L48.1699 23.2631L48.1633 23.2698L48.5202 23.62ZM51.0202 21.96L51.2148 22.4206L51.2179 22.4192L51.0202 21.96ZM54.0802 21.34L54.5274 21.1164L54.3892 20.84H54.0802V21.34ZM54.1002 21.88C55.1169 21.88 56.0484 22.0679 56.9008 22.4385L57.2995 21.5215C56.3119 21.0921 55.2434 20.88 54.1002 20.88V21.88ZM56.9167 22.4451C57.7972 22.7924 58.5865 23.3135 59.2866 24.0136L59.9937 23.3064C59.2004 22.5132 58.2964 21.9143 57.2836 21.5149L56.9167 22.4451ZM59.2866 24.0136C59.3191 24.0461 59.3202 24.0613 59.3202 24.08H60.3202C60.3202 23.7787 60.2012 23.5139 59.9937 23.3064L59.2866 24.0136ZM59.3202 24.08C59.3202 24.0886 59.3194 24.0933 59.319 24.0948C59.3188 24.0962 59.3187 24.0959 59.3192 24.0948C59.3197 24.0937 59.3199 24.0937 59.3189 24.095C59.3178 24.0964 59.3147 24.1003 59.308 24.1063L59.9723 24.8537C60.1987 24.6525 60.3202 24.3834 60.3202 24.08H59.3202ZM59.2665 24.1478C59.2605 24.1545 59.2566 24.1577 59.2552 24.1587C59.2538 24.1597 59.2539 24.1595 59.255 24.159C59.2561 24.1585 59.2564 24.1586 59.255 24.1589C59.2534 24.1592 59.2488 24.16 59.2402 24.16V25.16C59.5435 25.16 59.8127 25.0385 60.0139 24.8122L59.2665 24.1478ZM59.2402 24.16C59.2214 24.16 59.2063 24.159 59.1737 24.1264L58.4666 24.8336C58.6741 25.041 58.9389 25.16 59.2402 25.16V24.16ZM59.1699 24.1227C58.4984 23.4655 57.7262 22.9509 56.8562 22.58L56.4641 23.5C57.2208 23.8225 57.8885 24.2678 58.4704 24.8373L59.1699 24.1227ZM56.859 22.5812C55.9937 22.2063 55.0724 22.02 54.1002 22.02V23.02C54.9412 23.02 55.7266 23.1804 56.4614 23.4988L56.859 22.5812ZM54.1002 22.02H54.0602V23.02H54.1002V22.02ZM54.0602 22.02C53.0756 22.02 52.1475 22.2059 51.2814 22.5812L51.679 23.4988C52.4128 23.1808 53.2047 23.02 54.0602 23.02V22.02ZM51.2814 22.5812C50.4262 22.9518 49.6682 23.4592 49.0105 24.1026L49.7098 24.8174C50.2788 24.2608 50.9341 23.8216 51.679 23.4988L51.2814 22.5812ZM49.0027 24.1104C48.358 24.7694 47.8505 25.5353 47.4802 26.4039L48.4001 26.796C48.7232 26.0381 49.1623 25.3772 49.7176 24.8096L49.0027 24.1104ZM47.4814 26.4012C47.106 27.2674 46.9202 28.1955 46.9202 29.18H47.9202C47.9202 28.3245 48.0809 27.5326 48.3989 26.7988L47.4814 26.4012ZM46.9202 29.18C46.9202 30.1646 47.106 31.0982 47.4802 31.976L48.4001 31.584C48.0809 30.8351 47.9202 30.0354 47.9202 29.18H46.9202ZM47.4814 31.9788C47.8524 32.8349 48.3609 33.5878 49.0066 34.2336L49.7137 33.5264C49.1594 32.9722 48.7213 32.3251 48.3989 31.5812L47.4814 31.9788ZM49.0066 34.2336C49.6647 34.8916 50.4239 35.4072 51.2814 35.7788L51.679 34.8612C50.9364 34.5394 50.2823 34.095 49.7137 33.5264L49.0066 34.2336ZM51.2841 35.78C52.1619 36.1541 53.0956 36.34 54.0802 36.34V35.34C53.2247 35.34 52.425 35.1792 51.6762 34.86L51.2841 35.78ZM54.0802 36.34C55.0524 36.34 55.9737 36.1537 56.839 35.7788L56.4414 34.8612C55.7066 35.1796 54.9212 35.34 54.0802 35.34V36.34ZM56.8335 35.7811C57.7203 35.4092 58.4964 34.8852 59.1575 34.2097L58.4428 33.5103C57.8772 34.0882 57.2133 34.5375 56.4468 34.8589L56.8335 35.7811ZM59.1323 34.2337C59.1612 34.2081 59.1831 34.2 59.2202 34.2V33.2C58.9372 33.2 58.6791 33.2986 58.468 33.4863L59.1323 34.2337ZM59.2202 34.2C59.2438 34.2 59.2532 34.2037 59.2545 34.2042C59.2555 34.2047 59.2565 34.2051 59.2578 34.206C59.2592 34.2069 59.2622 34.2091 59.2666 34.2136L59.9737 33.5064C59.7671 33.2999 59.5038 33.2 59.2202 33.2V34.2ZM59.2666 34.2136C59.2991 34.2461 59.3002 34.2613 59.3002 34.28H60.3002C60.3002 33.9787 60.1812 33.7139 59.9737 33.5064L59.2666 34.2136ZM59.3002 34.28C59.3002 34.2886 59.2994 34.2933 59.299 34.2948C59.2988 34.2962 59.2987 34.2959 59.2992 34.2948C59.2997 34.2937 59.2999 34.2937 59.2989 34.295C59.2978 34.2964 59.2947 34.3003 59.288 34.3063L59.9523 35.0537C60.1787 34.8525 60.3002 34.5834 60.3002 34.28H59.3002ZM59.2666 34.3264C58.9263 34.6667 58.5537 34.9826 58.1483 35.274L58.732 36.086C59.1799 35.7641 59.594 35.4133 59.9737 35.0336L59.2666 34.3264ZM58.1569 35.268C57.7619 35.5396 57.3428 35.7614 56.8989 35.934L57.2614 36.866C57.7776 36.6653 58.2651 36.4071 58.7234 36.092L58.1569 35.268ZM56.8945 35.9358C56.4515 36.1129 55.9884 36.2589 55.5049 36.3735L55.7354 37.3465C56.2652 37.2211 56.7755 37.0604 57.2659 36.8642L56.8945 35.9358ZM55.5145 36.3713C55.0578 36.47 54.58 36.52 54.0802 36.52V37.52C54.647 37.52 55.1959 37.4633 55.7258 37.3487L55.5145 36.3713ZM54.0802 36.52C53.0658 36.52 52.1209 36.3263 51.2402 35.9418L50.8401 36.8582C51.8527 37.3004 52.9345 37.52 54.0802 37.52V36.52ZM51.2402 35.9418C50.3508 35.5534 49.5777 35.023 48.917 34.3498L48.2033 35.0502C48.9559 35.817 49.8362 36.4199 50.8401 36.8582L51.2402 35.9418ZM48.5602 34.2H48.5202V35.2H48.5602V34.2ZM48.8737 34.3464C48.2127 33.6854 47.6876 32.9113 47.2984 32.0199L46.3819 32.4201C46.8194 33.422 47.4143 34.3012 48.1666 35.0536L48.8737 34.3464ZM47.3007 32.0254C46.9281 31.1434 46.7402 30.1966 46.7402 29.18H45.7402C45.7402 30.3234 45.9522 31.4032 46.3796 32.4146L47.3007 32.0254ZM46.7402 29.18C46.7402 28.1492 46.9284 27.1958 47.3007 26.3146L46.3796 25.9254C45.9519 26.9375 45.7402 28.0241 45.7402 29.18H46.7402ZM47.2984 26.3201C47.6879 25.4279 48.214 24.6457 48.877 23.9702L48.1633 23.2698C47.413 24.0343 46.819 24.9188 46.3819 25.9199L47.2984 26.3201ZM48.8704 23.9768C49.5447 23.3151 50.3249 22.7966 51.2148 22.4206L50.8255 21.4994C49.8221 21.9234 48.9357 22.5116 48.1699 23.2632L48.8704 23.9768ZM51.2179 22.4192C52.1133 22.0337 53.0658 21.84 54.0802 21.84V20.84C52.9345 20.84 51.847 21.0596 50.8224 21.5008L51.2179 22.4192ZM53.6329 21.5636L53.6529 21.6036L54.5474 21.1564L54.5274 21.1164L53.6329 21.5636ZM67.2047 21.7L66.7419 21.5107L66.7412 21.5124L67.2047 21.7ZM67.7247 21.26V21.76H67.7386L67.7524 21.7592L67.7247 21.26ZM68.2647 21.7L67.799 21.8822L67.8012 21.8876L68.2647 21.7ZM74.1247 36.18L73.6612 36.3676L73.6651 36.3773L73.6695 36.3869L74.1247 36.18ZM74.1247 36.62L73.6695 36.4131L74.1247 36.62ZM73.8047 36.92L73.6338 36.4501L73.6155 36.4568L73.5978 36.4648L73.8047 36.92ZM73.3647 36.94L73.1578 37.3952L73.1755 37.4032L73.1938 37.4099L73.3647 36.94ZM73.0647 36.62L73.5346 36.4491L73.5316 36.4409L73.5283 36.4328L73.0647 36.62ZM67.7447 23.44L68.2083 23.2528L67.7456 22.1063L67.2813 23.2522L67.7447 23.44ZM62.4047 36.62L61.9413 36.4322L61.9379 36.4406L61.9348 36.4491L62.4047 36.62ZM62.1047 36.94L62.2756 37.4099L62.2939 37.4032L62.3116 37.3952L62.1047 36.94ZM61.6647 36.92L61.8716 36.4648L61.8539 36.4568L61.8356 36.4501L61.6647 36.92ZM61.3447 36.62L60.8748 36.7909L60.8814 36.8092L60.8895 36.8269L61.3447 36.62ZM61.3447 36.18L60.8812 35.9924L60.8778 36.0007L60.8748 36.0091L61.3447 36.18ZM67.6675 21.8893C67.7084 21.7893 67.7418 21.7566 67.7477 21.7517C67.7492 21.7504 67.7454 21.7538 67.7368 21.7569C67.7282 21.7601 67.723 21.76 67.7247 21.76V20.76C67.2134 20.76 66.9023 21.1186 66.7419 21.5107L67.6675 21.8893ZM67.7524 21.7592C67.7574 21.759 67.7525 21.7598 67.7421 21.7566C67.7315 21.7532 67.725 21.7485 67.7239 21.7476C67.7237 21.7475 67.7322 21.7544 67.7465 21.7759C67.7609 21.7978 67.7793 21.8318 67.7991 21.8822L68.7303 21.5178C68.6513 21.3159 68.5345 21.1182 68.3555 20.9724C68.1652 20.8173 67.9366 20.7475 67.697 20.7608L67.7524 21.7592ZM67.8012 21.8876L73.6612 36.3676L74.5882 35.9924L68.7282 21.5124L67.8012 21.8876ZM73.6695 36.3869C73.6731 36.3949 73.6743 36.3994 73.6746 36.4008C73.6749 36.4021 73.6747 36.4016 73.6747 36.4C73.6747 36.3984 73.6749 36.3979 73.6746 36.3992C73.6743 36.4006 73.6731 36.4051 73.6695 36.4131L74.5799 36.8269C74.7063 36.5488 74.7063 36.2512 74.5799 35.9731L73.6695 36.3869ZM73.6695 36.4131C73.6605 36.433 73.6537 36.4393 73.6527 36.4402C73.652 36.4409 73.6479 36.445 73.6338 36.4501L73.9756 37.3899C74.253 37.289 74.4596 37.0914 74.5799 36.8269L73.6695 36.4131ZM73.5978 36.4648C73.5768 36.4744 73.5657 36.4753 73.562 36.4755C73.5586 36.4757 73.5509 36.4757 73.5356 36.4701L73.1938 37.4099C73.4678 37.5095 73.7501 37.4941 74.0116 37.3752L73.5978 36.4648ZM73.5716 36.4848C73.5517 36.4758 73.5454 36.469 73.5445 36.468C73.5438 36.4673 73.5397 36.4632 73.5346 36.4491L72.5948 36.7909C72.6957 37.0683 72.8933 37.2749 73.1578 37.3952L73.5716 36.4848ZM73.5283 36.4328L68.2083 23.2528L67.281 23.6271L72.601 36.8072L73.5283 36.4328ZM67.2813 23.2522L61.9413 36.4322L62.8681 36.8078L68.2081 23.6278L67.2813 23.2522ZM61.9348 36.4491C61.9297 36.4632 61.9256 36.4673 61.9249 36.468C61.924 36.469 61.9177 36.4758 61.8978 36.4848L62.3116 37.3952C62.5761 37.2749 62.7737 37.0683 62.8746 36.7909L61.9348 36.4491ZM61.9338 36.4701C61.9185 36.4757 61.9108 36.4757 61.9074 36.4755C61.9037 36.4753 61.8926 36.4744 61.8716 36.4648L61.4578 37.3752C61.7193 37.4941 62.0015 37.5095 62.2756 37.4099L61.9338 36.4701ZM61.8356 36.4501C61.8214 36.445 61.8174 36.4409 61.8167 36.4402C61.8157 36.4393 61.8089 36.433 61.7999 36.4131L60.8895 36.8269C61.0097 37.0914 61.2164 37.289 61.4938 37.3899L61.8356 36.4501ZM61.8146 36.4491C61.8014 36.4128 61.8014 36.3872 61.8146 36.3509L60.8748 36.0091C60.7813 36.2662 60.7813 36.5338 60.8748 36.7909L61.8146 36.4491ZM61.8082 36.3676L67.6682 21.8876L66.7412 21.5124L60.8812 35.9924L61.8082 36.3676ZM77.6714 36.8L77.3179 36.4464L77.6714 36.8ZM76.8714 36.8L77.225 36.4464L76.8714 36.8ZM85.0714 21.68L84.8612 22.1337L84.8678 22.1367L84.8744 22.1396L85.0714 21.68ZM87.5314 24.14L87.0718 24.337L87.0747 24.3436L87.0778 24.3502L87.5314 24.14ZM87.5314 27.74L87.0758 27.5339L87.0718 27.543L87.5314 27.74ZM86.5514 29.2L86.1978 28.8464L86.1917 28.8527L86.5514 29.2ZM85.2314 30.14L85.4356 30.5965L85.4454 30.5919L85.2314 30.14ZM83.6314 30.52L83.6076 30.0206L83.4145 30.0298L83.2779 30.1664L83.6314 30.52ZM80.8314 30.56V30.06H79.387L80.5223 30.953L80.8314 30.56ZM87.6714 35.94L88.0036 35.5663L87.9923 35.5563L87.9805 35.547L87.6714 35.94ZM87.8914 36.34L87.3982 36.4222L87.8914 36.34ZM87.7714 36.76L87.3977 36.4278L87.3814 36.4461L87.367 36.4659L87.7714 36.76ZM87.3914 37L87.3461 36.5021L87.3239 36.5041L87.302 36.5081L87.3914 37ZM86.9514 36.88L86.6424 37.2731L86.6497 37.2789L86.6573 37.2844L86.9514 36.88ZM78.8114 30.48L79.1205 30.0868L79.1114 30.08L78.8114 30.48ZM78.7314 29.58L78.3779 29.2264L78.7314 29.58ZM84.6314 29.16L84.8197 29.6234L84.8318 29.6181L84.6314 29.16ZM85.7314 28.4L85.3778 28.0464L85.3704 28.054L85.7314 28.4ZM86.4714 24.6L86.0133 24.8004L86.0157 24.8058L86.4714 24.6ZM85.7314 23.5L85.3703 23.846L85.3779 23.8536L85.7314 23.5ZM84.6314 22.76L84.4309 23.2182L84.4432 23.2232L84.6314 22.76ZM77.8514 22.48V21.98H77.3514V22.48H77.8514ZM77.3514 36.4C77.3514 36.4013 77.3513 36.402 77.3513 36.4023C77.3513 36.4025 77.3513 36.4026 77.3513 36.4027C77.3513 36.4027 77.3513 36.4027 77.3513 36.4027C77.3513 36.4027 77.3513 36.4027 77.3512 36.4028C77.3512 36.4028 77.3512 36.4029 77.3512 36.403C77.3511 36.4032 77.3509 36.4038 77.3504 36.4048C77.349 36.4081 77.3418 36.4225 77.3179 36.4464L78.025 37.1536C78.2228 36.9557 78.3514 36.7002 78.3514 36.4H77.3514ZM77.3179 36.4464C77.2939 36.4704 77.2795 36.4776 77.2762 36.479C77.2752 36.4795 77.2746 36.4797 77.2744 36.4798C77.2743 36.4798 77.2742 36.4798 77.2742 36.4798C77.2742 36.4798 77.2741 36.4798 77.2741 36.4798C77.2741 36.4799 77.2741 36.4799 77.2741 36.4799C77.274 36.4799 77.2739 36.4799 77.2737 36.4799C77.2734 36.4799 77.2727 36.48 77.2714 36.48V37.48C77.5716 37.48 77.8271 37.3514 78.025 37.1536L77.3179 36.4464ZM77.2714 36.48C77.2701 36.48 77.2694 36.4799 77.2691 36.4799C77.2689 36.4799 77.2688 36.4799 77.2687 36.4799C77.2687 36.4799 77.2687 36.4799 77.2687 36.4798C77.2687 36.4798 77.2687 36.4798 77.2686 36.4798C77.2686 36.4798 77.2685 36.4798 77.2684 36.4798C77.2682 36.4797 77.2676 36.4795 77.2666 36.479C77.2633 36.4776 77.2489 36.4704 77.225 36.4464L76.5179 37.1536C76.7157 37.3514 76.9712 37.48 77.2714 37.48V36.48ZM77.225 36.4464C77.201 36.4225 77.1939 36.4081 77.1924 36.4048C77.1919 36.4038 77.1917 36.4032 77.1916 36.403C77.1916 36.4029 77.1916 36.4028 77.1916 36.4028C77.1916 36.4027 77.1916 36.4027 77.1916 36.4027C77.1916 36.4027 77.1916 36.4027 77.1915 36.4027C77.1915 36.4026 77.1915 36.4025 77.1915 36.4023C77.1915 36.402 77.1914 36.4013 77.1914 36.4H76.1914C76.1914 36.7002 76.32 36.9557 76.5179 37.1536L77.225 36.4464ZM77.1914 36.4V21.88H76.1914V36.4H77.1914ZM77.1914 21.88C77.1914 21.8787 77.1915 21.878 77.1915 21.8777C77.1915 21.8775 77.1915 21.8774 77.1915 21.8773C77.1916 21.8773 77.1916 21.8773 77.1916 21.8773C77.1916 21.8773 77.1916 21.8773 77.1916 21.8772C77.1916 21.8772 77.1916 21.8771 77.1916 21.877C77.1917 21.8768 77.1919 21.8762 77.1924 21.8752C77.1939 21.8719 77.201 21.8575 77.225 21.8336L76.5179 21.1264C76.32 21.3243 76.1914 21.5798 76.1914 21.88H77.1914ZM77.225 21.8336C77.2489 21.8096 77.2633 21.8024 77.2666 21.801C77.2676 21.8005 77.2682 21.8003 77.2684 21.8002C77.2685 21.8002 77.2686 21.8002 77.2686 21.8002C77.2687 21.8002 77.2687 21.8001 77.2687 21.8001C77.2687 21.8001 77.2687 21.8001 77.2687 21.8001C77.2688 21.8001 77.2689 21.8001 77.2691 21.8001C77.2694 21.8001 77.2701 21.8 77.2714 21.8V20.8C76.9712 20.8 76.7157 20.9286 76.5179 21.1264L77.225 21.8336ZM77.2714 21.8H83.2714V20.8H77.2714V21.8ZM83.2714 21.8C83.8583 21.8 84.3858 21.9134 84.8612 22.1337L85.2816 21.2263C84.6637 20.94 83.9911 20.8 83.2714 20.8V21.8ZM84.8744 22.1396C85.3766 22.3548 85.8166 22.6523 86.1979 23.0336L86.905 22.3264C86.4329 21.8544 85.8862 21.4852 85.2684 21.2204L84.8744 22.1396ZM86.1979 23.0336C86.5643 23.4 86.8558 23.8329 87.0718 24.337L87.991 23.943C87.727 23.3271 87.3652 22.7867 86.905 22.3264L86.1979 23.0336ZM87.0778 24.3502C87.2987 24.827 87.4114 25.348 87.4114 25.92H88.4114C88.4114 25.212 88.2708 24.5464 87.9851 23.9298L87.0778 24.3502ZM87.4114 25.92C87.4114 26.5068 87.2981 27.0427 87.0759 27.5339L87.987 27.9461C88.2714 27.3173 88.4114 26.6398 88.4114 25.92H87.4114ZM87.0718 27.543C86.8558 28.0471 86.5643 28.48 86.1979 28.8464L86.905 29.5536C87.3652 29.0933 87.727 28.5529 87.991 27.937L87.0718 27.543ZM86.1917 28.8527C85.862 29.1942 85.472 29.4728 85.0174 29.6881L85.4454 30.5919C86.0042 30.3272 86.4941 29.9792 86.9111 29.5473L86.1917 28.8527ZM85.0272 29.6836C84.5781 29.8845 84.106 29.9968 83.6076 30.0206L83.6552 31.0194C84.2768 30.9898 84.8714 30.8488 85.4356 30.5964L85.0272 29.6836ZM83.2779 30.1664C83.3394 30.1049 83.4035 30.0794 83.439 30.0692C83.4735 30.0594 83.4943 30.06 83.4914 30.06V31.06C83.5969 31.06 83.8143 31.0442 83.985 30.8736L83.2779 30.1664ZM83.4914 30.06H80.8314V31.06H83.4914V30.06ZM80.5223 30.953L87.3623 36.333L87.9805 35.547L81.1405 30.167L80.5223 30.953ZM87.3392 36.3137C87.3729 36.3436 87.3901 36.3736 87.3982 36.4222L88.3846 36.2578C88.3394 35.9864 88.2099 35.7497 88.0036 35.5663L87.3392 36.3137ZM87.3982 36.4222C87.3989 36.4264 87.3992 36.4294 87.3993 36.4313C87.3994 36.4331 87.3994 36.434 87.3994 36.4341C87.3994 36.4341 87.3994 36.4334 87.3996 36.4321C87.3998 36.4309 87.4002 36.4293 87.4006 36.4276C87.4017 36.4239 87.4029 36.4214 87.4034 36.4206C87.4038 36.4199 87.4025 36.4224 87.3977 36.4278L88.1451 37.0922C88.3534 36.8579 88.4358 36.5651 88.3846 36.2578L87.3982 36.4222ZM87.367 36.4659C87.3553 36.4821 87.3458 36.4925 87.3393 36.4989C87.3328 36.5051 87.3294 36.5072 87.3294 36.5073C87.3294 36.5073 87.33 36.5069 87.3312 36.5063C87.3325 36.5057 87.3341 36.505 87.3361 36.5043C87.3403 36.5029 87.344 36.5023 87.3461 36.5021L87.4367 37.4979C87.7593 37.4686 88.0056 37.288 88.1758 37.0541L87.367 36.4659ZM87.302 36.5081C87.3017 36.5081 87.3027 36.5079 87.3041 36.508C87.3055 36.5081 87.3053 36.5083 87.303 36.5076C87.2982 36.5063 87.2791 36.5 87.2455 36.4756L86.6573 37.2844C86.8888 37.4527 87.1714 37.5482 87.4809 37.4919L87.302 36.5081ZM87.2604 36.4869L79.1204 30.0869L78.5024 30.8731L86.6424 37.2731L87.2604 36.4869ZM79.1114 30.08C79.0861 30.061 79.08 30.0491 79.0786 30.0464C79.0773 30.0437 79.0714 30.0316 79.0714 30H78.0714C78.0714 30.3574 78.2255 30.6656 78.5114 30.88L79.1114 30.08ZM79.0714 30C79.0714 29.9648 79.0768 29.948 79.0787 29.943C79.08 29.9393 79.0811 29.9374 79.085 29.9336L78.3779 29.2264C78.1633 29.441 78.0714 29.7155 78.0714 30H79.0714ZM79.085 29.9336C79.0888 29.9297 79.0908 29.9286 79.0944 29.9272C79.0994 29.9253 79.1162 29.92 79.1514 29.92V28.92C78.8669 28.92 78.5924 29.0119 78.3779 29.2264L79.085 29.9336ZM79.1514 29.92H83.2714V28.92H79.1514V29.92ZM83.2714 29.92C83.8131 29.92 84.3306 29.8219 84.8196 29.6232L84.4432 28.6968C84.0788 28.8448 83.6897 28.92 83.2714 28.92V29.92ZM84.8318 29.6181C85.3158 29.4064 85.7378 29.1159 86.0924 28.746L85.3704 28.054C85.1117 28.3241 84.8004 28.5403 84.431 28.7019L84.8318 29.6181ZM86.085 28.7536C86.4389 28.3996 86.7197 27.9799 86.9295 27.5004L86.0133 27.0996C85.8498 27.4734 85.6373 27.787 85.3779 28.0464L86.085 28.7536ZM86.9295 27.5004C87.1447 27.0086 87.2514 26.4868 87.2514 25.94H86.2514C86.2514 26.3532 86.1715 26.7381 86.0133 27.0996L86.9295 27.5004ZM87.2514 25.94C87.2514 25.3933 87.1447 24.876 86.9271 24.3942L86.0157 24.8058C86.1715 25.1507 86.2514 25.5267 86.2514 25.94H87.2514ZM86.9295 24.3996C86.7197 23.9201 86.4389 23.5004 86.085 23.1464L85.3779 23.8536C85.6373 24.113 85.8498 24.4266 86.0133 24.8004L86.9295 24.3996ZM86.0924 23.154C85.7351 22.7812 85.3089 22.4955 84.8196 22.2968L84.4432 23.2232C84.8073 23.3711 85.1144 23.5788 85.3704 23.846L86.0924 23.154ZM84.8318 22.3019C84.34 22.0868 83.8182 21.98 83.2714 21.98V22.98C83.6846 22.98 84.0695 23.0599 84.431 23.2181L84.8318 22.3019ZM83.2714 21.98H77.8514V22.98H83.2714V21.98ZM77.3514 22.48V36.42H78.3514V22.48H77.3514ZM78.3514 36.42V36.4H77.3514V36.42H78.3514ZM100.286 21.7L100.08 22.1556L100.089 22.1596L100.286 21.7ZM101.766 22.7L102.12 22.3464V22.3464L101.766 22.7ZM102.746 24.16L102.287 24.357L102.288 24.361L102.746 24.16ZM101.766 29.22L102.12 29.5736L101.766 29.22ZM100.426 30.16L100.635 30.6144L100.64 30.6119L100.426 30.16ZM98.8063 30.54L98.7835 30.0405L98.5898 30.0493L98.4527 30.1864L98.8063 30.54ZM93.9463 29.58L93.5927 29.2264L93.9463 29.58ZM99.8262 29.16L100.02 29.6212L100.027 29.6181L99.8262 29.16ZM100.946 28.4L101.3 28.7536L100.946 28.4ZM101.666 27.3L101.208 27.0995L101.203 27.1118L101.666 27.3ZM101.666 24.6L101.203 24.7882L101.207 24.7971L101.211 24.8058L101.666 24.6ZM99.8262 22.76L99.6205 23.2157L99.6292 23.2196L99.6381 23.2232L99.8262 22.76ZM93.0662 22.48V21.98H92.5662V22.48H93.0662ZM92.5662 36.42C92.5662 36.4213 92.5662 36.422 92.5662 36.4223C92.5661 36.4225 92.5661 36.4226 92.5661 36.4227C92.5661 36.4227 92.5661 36.4227 92.5661 36.4227C92.5661 36.4227 92.5661 36.4227 92.5661 36.4228C92.5661 36.4228 92.5661 36.4229 92.566 36.423C92.5659 36.4232 92.5657 36.4238 92.5653 36.4248C92.5638 36.4281 92.5566 36.4425 92.5327 36.4664L93.2398 37.1736C93.4376 36.9757 93.5662 36.7202 93.5662 36.42H92.5662ZM92.5327 36.4664C92.5088 36.4904 92.4944 36.4976 92.4911 36.499C92.4901 36.4995 92.4895 36.4997 92.4893 36.4998C92.4891 36.4998 92.4891 36.4998 92.489 36.4998C92.489 36.4998 92.489 36.4998 92.489 36.4998C92.489 36.4998 92.489 36.4999 92.4889 36.4999C92.4889 36.4999 92.4888 36.4999 92.4886 36.4999C92.4883 36.4999 92.4875 36.5 92.4863 36.5V37.5C92.7865 37.5 93.042 37.3714 93.2398 37.1736L92.5327 36.4664ZM92.4863 36.5C92.4718 36.5 92.4622 36.4988 92.4565 36.4977C92.451 36.4966 92.4486 36.4956 92.4482 36.4954C92.4479 36.4953 92.4478 36.4952 92.4472 36.4949C92.4466 36.4944 92.4441 36.4925 92.44 36.4878L91.6925 37.1522C91.9023 37.3881 92.1829 37.5 92.4863 37.5V36.5ZM92.44 36.4878C92.4063 36.45 92.4062 36.4322 92.4062 36.42H91.4062C91.4062 36.7011 91.5128 36.95 91.6925 37.1522L92.44 36.4878ZM92.4062 36.42V21.9H91.4062V36.42H92.4062ZM92.4062 21.9C92.4062 21.8878 92.4063 21.87 92.44 21.8322L91.6925 21.1678C91.5128 21.37 91.4062 21.6189 91.4062 21.9H92.4062ZM92.44 21.8322C92.4441 21.8275 92.4466 21.8256 92.4472 21.8251C92.4478 21.8248 92.4479 21.8247 92.4482 21.8246C92.4486 21.8244 92.451 21.8234 92.4565 21.8223C92.4622 21.8212 92.4718 21.82 92.4863 21.82V20.82C92.1829 20.82 91.9023 20.9319 91.6925 21.1678L92.44 21.8322ZM92.4863 21.82H98.4863V20.82H92.4863V21.82ZM98.4863 21.82C99.0582 21.82 99.5876 21.9327 100.08 22.1556L100.492 21.2444C99.8649 20.9606 99.1943 20.82 98.4863 20.82V21.82ZM100.089 22.1596C100.591 22.3748 101.031 22.6723 101.413 23.0536L102.12 22.3464C101.648 21.8744 101.101 21.5052 100.483 21.2404L100.089 22.1596ZM101.413 23.0536C101.779 23.42 102.071 23.8529 102.287 24.357L103.206 23.963C102.942 23.3471 102.58 22.8067 102.12 22.3464L101.413 23.0536ZM102.288 24.361C102.499 24.8398 102.606 25.3641 102.606 25.94H103.606C103.606 25.2359 103.474 24.5735 103.204 23.959L102.288 24.361ZM102.606 25.94C102.606 26.5306 102.498 27.0697 102.287 27.563L103.206 27.957C103.474 27.3303 103.606 26.6561 103.606 25.94H102.606ZM102.287 27.563C102.071 28.0671 101.779 28.5 101.413 28.8664L102.12 29.5736C102.58 29.1133 102.942 28.5729 103.206 27.957L102.287 27.563ZM101.413 28.8664C101.068 29.2116 100.668 29.492 100.212 29.7081L100.64 30.6119C101.197 30.348 101.692 30.0018 102.12 29.5736L101.413 28.8664ZM100.217 29.7057C99.7873 29.9033 99.3112 30.0165 98.7835 30.0405L98.829 31.0395C99.4747 31.0101 100.079 30.87 100.635 30.6143L100.217 29.7057ZM98.4527 30.1864C98.5529 30.0863 98.6625 30.08 98.6862 30.08V31.08C98.8167 31.08 99.0063 31.0471 99.1598 30.8936L98.4527 30.1864ZM98.6862 30.08H94.3263V31.08H98.6862V30.08ZM94.3263 30.08C94.3239 30.08 94.3245 30.0798 94.3272 30.0804C94.33 30.081 94.3329 30.082 94.3353 30.0831C94.3376 30.0842 94.3377 30.0846 94.3354 30.0829C94.333 30.081 94.3277 30.0766 94.32 30.0678L93.5725 30.7322C93.764 30.9476 94.0223 31.08 94.3263 31.08V30.08ZM94.32 30.0678C94.2863 30.03 94.2863 30.0122 94.2863 30H93.2863C93.2863 30.2811 93.3928 30.53 93.5725 30.7322L94.32 30.0678ZM94.2863 30C94.2863 29.9648 94.2916 29.948 94.2935 29.943C94.2949 29.9393 94.296 29.9374 94.2998 29.9336L93.5927 29.2264C93.3781 29.441 93.2863 29.7155 93.2863 30H94.2863ZM94.2998 29.9336C94.3062 29.9272 94.3106 29.9239 94.3128 29.9224C94.3149 29.9209 94.3157 29.9207 94.3153 29.9208C94.3149 29.921 94.3148 29.9209 94.3158 29.9207C94.3167 29.9206 94.32 29.92 94.3263 29.92V28.92C94.0428 28.92 93.7901 29.029 93.5927 29.2264L94.2998 29.9336ZM94.3263 29.92H98.4863V28.92H94.3263V29.92ZM98.4863 29.92C99.0279 29.92 99.5408 29.8219 100.02 29.6211L99.6329 28.6989C99.285 28.8448 98.9046 28.92 98.4863 28.92V29.92ZM100.027 29.6181C100.509 29.4072 100.934 29.1189 101.3 28.7536L100.593 28.0464C100.318 28.3211 99.9971 28.5395 99.6258 28.7019L100.027 29.6181ZM101.3 28.7536C101.657 28.3968 101.933 27.9729 102.129 27.4882L101.203 27.1118C101.053 27.4805 100.849 27.7899 100.593 28.0464L101.3 28.7536ZM102.124 27.5004C102.34 27.0086 102.446 26.4868 102.446 25.94H101.446C101.446 26.3532 101.366 26.7381 101.208 27.0996L102.124 27.5004ZM102.446 25.94C102.446 25.3933 102.34 24.876 102.122 24.3942L101.211 24.8058C101.366 25.1507 101.446 25.5267 101.446 25.94H102.446ZM102.129 24.4118C101.933 23.9271 101.657 23.5032 101.3 23.1464L100.593 23.8536C100.849 24.1101 101.053 24.4195 101.203 24.7882L102.129 24.4118ZM101.3 23.1464C100.932 22.7784 100.502 22.4948 100.014 22.2968L99.6381 23.2232C100.004 23.3719 100.321 23.5816 100.593 23.8536L101.3 23.1464ZM100.032 22.3043C99.5503 22.0868 99.033 21.98 98.4863 21.98V22.98C98.8995 22.98 99.2755 23.0599 99.6205 23.2157L100.032 22.3043ZM98.4863 21.98H93.0662V22.98H98.4863V21.98ZM92.5662 22.48V36.42H93.5662V22.48H92.5662ZM109.041 21.7L108.578 21.5107L108.577 21.5124L109.041 21.7ZM109.561 21.26V21.76H109.575L109.588 21.7592L109.561 21.26ZM110.101 21.7L109.635 21.8822L109.637 21.8876L110.101 21.7ZM115.961 36.18L115.497 36.3676L115.501 36.3773L115.505 36.3869L115.961 36.18ZM115.961 36.62L115.505 36.4131L115.961 36.62ZM115.641 36.92L115.47 36.4501L115.451 36.4568L115.434 36.4648L115.641 36.92ZM115.201 36.94L114.994 37.3952L115.011 37.4032L115.03 37.4099L115.201 36.94ZM114.901 36.62L115.371 36.4491L115.368 36.4409L115.364 36.4328L114.901 36.62ZM109.581 23.44L110.044 23.2528L109.581 22.1063L109.117 23.2522L109.581 23.44ZM104.241 36.62L103.777 36.4322L103.774 36.4406L103.771 36.4491L104.241 36.62ZM103.941 36.94L104.111 37.4099L104.13 37.4032L104.148 37.3952L103.941 36.94ZM103.501 36.92L103.708 36.4648L103.69 36.4568L103.671 36.4501L103.501 36.92ZM103.181 36.62L102.711 36.7909L102.717 36.8092L102.725 36.8269L103.181 36.62ZM103.181 36.18L102.717 35.9924L102.714 36.0007L102.711 36.0091L103.181 36.18ZM109.503 21.8893C109.544 21.7893 109.578 21.7566 109.584 21.7517C109.585 21.7504 109.581 21.7538 109.573 21.7569C109.564 21.7601 109.559 21.76 109.561 21.76V20.76C109.049 20.76 108.738 21.1186 108.578 21.5107L109.503 21.8893ZM109.588 21.7592C109.593 21.759 109.588 21.7598 109.578 21.7566C109.567 21.7532 109.561 21.7485 109.56 21.7476C109.56 21.7475 109.568 21.7544 109.582 21.7759C109.597 21.7978 109.615 21.8318 109.635 21.8822L110.566 21.5178C110.487 21.3159 110.37 21.1182 110.191 20.9724C110.001 20.8173 109.772 20.7475 109.533 20.7608L109.588 21.7592ZM109.637 21.8876L115.497 36.3676L116.424 35.9924L110.564 21.5124L109.637 21.8876ZM115.505 36.3869C115.509 36.3949 115.51 36.3994 115.511 36.4008C115.511 36.4021 115.511 36.4016 115.511 36.4C115.511 36.3984 115.511 36.3979 115.511 36.3992C115.51 36.4006 115.509 36.4051 115.505 36.4131L116.416 36.8269C116.542 36.5488 116.542 36.2512 116.416 35.9731L115.505 36.3869ZM115.505 36.4131C115.496 36.433 115.49 36.4393 115.489 36.4402C115.488 36.4409 115.484 36.445 115.47 36.4501L115.812 37.3899C116.089 37.289 116.296 37.0914 116.416 36.8269L115.505 36.4131ZM115.434 36.4648C115.413 36.4744 115.402 36.4753 115.398 36.4755C115.395 36.4757 115.387 36.4757 115.371 36.4701L115.03 37.4099C115.304 37.5095 115.586 37.4941 115.848 37.3752L115.434 36.4648ZM115.408 36.4848C115.388 36.4758 115.381 36.469 115.38 36.468C115.38 36.4673 115.376 36.4632 115.371 36.4491L114.431 36.7909C114.532 37.0683 114.729 37.2749 114.994 37.3952L115.408 36.4848ZM115.364 36.4328L110.044 23.2528L109.117 23.6271L114.437 36.8072L115.364 36.4328ZM109.117 23.2522L103.777 36.4322L104.704 36.8078L110.044 23.6278L109.117 23.2522ZM103.771 36.4491C103.766 36.4632 103.762 36.4673 103.761 36.468C103.76 36.469 103.754 36.4758 103.734 36.4848L104.148 37.3952C104.412 37.2749 104.61 37.0683 104.711 36.7909L103.771 36.4491ZM103.77 36.4701C103.754 36.4757 103.747 36.4757 103.743 36.4755C103.74 36.4753 103.729 36.4744 103.708 36.4648L103.294 37.3752C103.555 37.4941 103.837 37.5095 104.111 37.4099L103.77 36.4701ZM103.671 36.4501C103.657 36.445 103.653 36.4409 103.653 36.4402C103.652 36.4393 103.645 36.433 103.636 36.4131L102.725 36.8269C102.846 37.0914 103.052 37.289 103.33 37.3899L103.671 36.4501ZM103.651 36.4491C103.637 36.4128 103.637 36.3872 103.651 36.3509L102.711 36.0091C102.617 36.2662 102.617 36.5338 102.711 36.7909L103.651 36.4491ZM103.644 36.3676L109.504 21.8876L108.577 21.5124L102.717 35.9924L103.644 36.3676ZM119.507 36.8L119.154 36.4464L119.507 36.8ZM118.707 36.8L119.061 36.4464L118.707 36.8ZM126.907 21.68L126.697 22.1337L126.704 22.1367L126.71 22.1396L126.907 21.68ZM129.367 24.14L128.908 24.337L128.911 24.3436L128.914 24.3502L129.367 24.14ZM129.367 27.74L128.912 27.5339L128.908 27.543L129.367 27.74ZM128.387 29.2L128.034 28.8464L128.028 28.8527L128.387 29.2ZM127.067 30.14L127.272 30.5965L127.281 30.5919L127.067 30.14ZM125.467 30.52L125.444 30.0206L125.25 30.0298L125.114 30.1664L125.467 30.52ZM122.667 30.56V30.06H121.223L122.358 30.953L122.667 30.56ZM129.507 35.94L129.84 35.5663L129.828 35.5563L129.816 35.547L129.507 35.94ZM129.727 36.34L129.234 36.4222L129.727 36.34ZM129.607 36.76L129.234 36.4278L129.217 36.4461L129.203 36.4659L129.607 36.76ZM129.227 37L129.182 36.5021L129.16 36.5041L129.138 36.5081L129.227 37ZM128.787 36.88L128.478 37.2731L128.486 37.2789L128.493 37.2844L128.787 36.88ZM120.647 30.48L120.956 30.0868L120.947 30.08L120.647 30.48ZM120.567 29.58L120.214 29.2264L120.567 29.58ZM126.467 29.16L126.656 29.6234L126.668 29.6181L126.467 29.16ZM127.567 28.4L127.214 28.0464L127.206 28.054L127.567 28.4ZM128.307 24.6L127.849 24.8004L127.852 24.8058L128.307 24.6ZM127.567 23.5L127.206 23.846L127.214 23.8536L127.567 23.5ZM126.467 22.76L126.267 23.2182L126.279 23.2232L126.467 22.76ZM119.687 22.48V21.98H119.187V22.48H119.687ZM119.187 36.4C119.187 36.4013 119.187 36.402 119.187 36.4023C119.187 36.4025 119.187 36.4026 119.187 36.4027C119.187 36.4027 119.187 36.4027 119.187 36.4027C119.187 36.4027 119.187 36.4027 119.187 36.4028C119.187 36.4028 119.187 36.4029 119.187 36.403C119.187 36.4032 119.187 36.4038 119.186 36.4048C119.185 36.4081 119.178 36.4225 119.154 36.4464L119.861 37.1536C120.059 36.9557 120.187 36.7002 120.187 36.4H119.187ZM119.154 36.4464C119.13 36.4704 119.115 36.4776 119.112 36.479C119.111 36.4795 119.111 36.4797 119.11 36.4798C119.11 36.4798 119.11 36.4798 119.11 36.4798C119.11 36.4798 119.11 36.4798 119.11 36.4798C119.11 36.4799 119.11 36.4799 119.11 36.4799C119.11 36.4799 119.11 36.4799 119.11 36.4799C119.109 36.4799 119.109 36.48 119.107 36.48V37.48C119.408 37.48 119.663 37.3514 119.861 37.1536L119.154 36.4464ZM119.107 36.48C119.106 36.48 119.105 36.4799 119.105 36.4799C119.105 36.4799 119.105 36.4799 119.105 36.4799C119.105 36.4799 119.105 36.4799 119.105 36.4798C119.105 36.4798 119.105 36.4798 119.105 36.4798C119.105 36.4798 119.104 36.4798 119.104 36.4798C119.104 36.4797 119.104 36.4795 119.103 36.479C119.099 36.4776 119.085 36.4704 119.061 36.4464L118.354 37.1536C118.552 37.3514 118.807 37.48 119.107 37.48V36.48ZM119.061 36.4464C119.037 36.4225 119.03 36.4081 119.028 36.4048C119.028 36.4038 119.028 36.4032 119.028 36.403C119.028 36.4029 119.028 36.4028 119.028 36.4028C119.027 36.4027 119.027 36.4027 119.027 36.4027C119.027 36.4027 119.027 36.4027 119.027 36.4027C119.027 36.4026 119.027 36.4025 119.027 36.4023C119.027 36.402 119.027 36.4013 119.027 36.4H118.027C118.027 36.7002 118.156 36.9557 118.354 37.1536L119.061 36.4464ZM119.027 36.4V21.88H118.027V36.4H119.027ZM119.027 21.88C119.027 21.8787 119.027 21.878 119.027 21.8777C119.027 21.8775 119.027 21.8774 119.027 21.8773C119.027 21.8773 119.027 21.8773 119.027 21.8773C119.027 21.8773 119.027 21.8773 119.028 21.8772C119.028 21.8772 119.028 21.8771 119.028 21.877C119.028 21.8768 119.028 21.8762 119.028 21.8752C119.03 21.8719 119.037 21.8575 119.061 21.8336L118.354 21.1264C118.156 21.3243 118.027 21.5798 118.027 21.88H119.027ZM119.061 21.8336C119.085 21.8096 119.099 21.8024 119.103 21.801C119.104 21.8005 119.104 21.8003 119.104 21.8002C119.104 21.8002 119.105 21.8002 119.105 21.8002C119.105 21.8002 119.105 21.8001 119.105 21.8001C119.105 21.8001 119.105 21.8001 119.105 21.8001C119.105 21.8001 119.105 21.8001 119.105 21.8001C119.105 21.8001 119.106 21.8 119.107 21.8V20.8C118.807 20.8 118.552 20.9286 118.354 21.1264L119.061 21.8336ZM119.107 21.8H125.107V20.8H119.107V21.8ZM125.107 21.8C125.694 21.8 126.222 21.9134 126.697 22.1337L127.118 21.2263C126.5 20.94 125.827 20.8 125.107 20.8V21.8ZM126.71 22.1396C127.213 22.3548 127.653 22.6523 128.034 23.0336L128.741 22.3264C128.269 21.8544 127.722 21.4852 127.104 21.2204L126.71 22.1396ZM128.034 23.0336C128.4 23.4 128.692 23.8329 128.908 24.337L129.827 23.943C129.563 23.3271 129.201 22.7867 128.741 22.3264L128.034 23.0336ZM128.914 24.3502C129.135 24.827 129.247 25.348 129.247 25.92H130.247C130.247 25.212 130.107 24.5464 129.821 23.9298L128.914 24.3502ZM129.247 25.92C129.247 26.5068 129.134 27.0427 128.912 27.5339L129.823 27.9461C130.107 27.3173 130.247 26.6398 130.247 25.92H129.247ZM128.908 27.543C128.692 28.0471 128.4 28.48 128.034 28.8464L128.741 29.5536C129.201 29.0933 129.563 28.5529 129.827 27.937L128.908 27.543ZM128.028 28.8527C127.698 29.1942 127.308 29.4728 126.853 29.6881L127.281 30.5919C127.84 30.3272 128.33 29.9792 128.747 29.5473L128.028 28.8527ZM126.863 29.6836C126.414 29.8845 125.942 29.9968 125.444 30.0206L125.491 31.0194C126.113 30.9898 126.707 30.8488 127.272 30.5964L126.863 29.6836ZM125.114 30.1664C125.175 30.1049 125.239 30.0794 125.275 30.0692C125.309 30.0594 125.33 30.06 125.327 30.06V31.06C125.433 31.06 125.65 31.0442 125.821 30.8736L125.114 30.1664ZM125.327 30.06H122.667V31.06H125.327V30.06ZM122.358 30.953L129.198 36.333L129.816 35.547L122.976 30.167L122.358 30.953ZM129.175 36.3137C129.209 36.3436 129.226 36.3736 129.234 36.4222L130.221 36.2578C130.175 35.9864 130.046 35.7497 129.84 35.5663L129.175 36.3137ZM129.234 36.4222C129.235 36.4264 129.235 36.4294 129.235 36.4313C129.235 36.4331 129.235 36.434 129.235 36.4341C129.235 36.4341 129.235 36.4334 129.236 36.4321C129.236 36.4309 129.236 36.4293 129.237 36.4276C129.238 36.4239 129.239 36.4214 129.239 36.4206C129.24 36.4199 129.238 36.4224 129.234 36.4278L129.981 37.0922C130.189 36.8579 130.272 36.5651 130.221 36.2578L129.234 36.4222ZM129.203 36.4659C129.191 36.4821 129.182 36.4925 129.175 36.4989C129.169 36.5051 129.165 36.5072 129.165 36.5073C129.165 36.5073 129.166 36.5069 129.167 36.5063C129.168 36.5057 129.17 36.505 129.172 36.5043C129.176 36.5029 129.18 36.5023 129.182 36.5021L129.273 37.4979C129.595 37.4686 129.842 37.288 130.012 37.0541L129.203 36.4659ZM129.138 36.5081C129.138 36.5081 129.139 36.5079 129.14 36.508C129.141 36.5081 129.141 36.5083 129.139 36.5076C129.134 36.5063 129.115 36.5 129.081 36.4756L128.493 37.2844C128.725 37.4527 129.007 37.5482 129.317 37.4919L129.138 36.5081ZM129.096 36.4869L120.956 30.0869L120.338 30.8731L128.478 37.2731L129.096 36.4869ZM120.947 30.08C120.922 30.061 120.916 30.0491 120.915 30.0464C120.913 30.0437 120.907 30.0316 120.907 30H119.907C119.907 30.3574 120.061 30.6656 120.347 30.88L120.947 30.08ZM120.907 30C120.907 29.9648 120.913 29.948 120.915 29.943C120.916 29.9393 120.917 29.9374 120.921 29.9336L120.214 29.2264C119.999 29.441 119.907 29.7155 119.907 30H120.907ZM120.921 29.9336C120.925 29.9297 120.927 29.9286 120.93 29.9272C120.935 29.9253 120.952 29.92 120.987 29.92V28.92C120.703 28.92 120.428 29.0119 120.214 29.2264L120.921 29.9336ZM120.987 29.92H125.107V28.92H120.987V29.92ZM125.107 29.92C125.649 29.92 126.167 29.8219 126.656 29.6232L126.279 28.6968C125.915 28.8448 125.526 28.92 125.107 28.92V29.92ZM126.668 29.6181C127.152 29.4064 127.574 29.1159 127.928 28.746L127.206 28.054C126.948 28.3241 126.636 28.5403 126.267 28.7019L126.668 29.6181ZM127.921 28.7536C128.275 28.3996 128.556 27.9799 128.765 27.5004L127.849 27.0996C127.686 27.4734 127.473 27.787 127.214 28.0464L127.921 28.7536ZM128.765 27.5004C128.981 27.0086 129.087 26.4868 129.087 25.94H128.087C128.087 26.3532 128.007 26.7381 127.849 27.0996L128.765 27.5004ZM129.087 25.94C129.087 25.3933 128.981 24.876 128.763 24.3942L127.852 24.8058C128.007 25.1507 128.087 25.5267 128.087 25.94H129.087ZM128.765 24.3996C128.556 23.9201 128.275 23.5004 127.921 23.1464L127.214 23.8536C127.473 24.113 127.686 24.4266 127.849 24.8004L128.765 24.3996ZM127.928 23.154C127.571 22.7812 127.145 22.4955 126.656 22.2968L126.279 23.2232C126.643 23.3711 126.95 23.5788 127.206 23.846L127.928 23.154ZM126.668 22.3019C126.176 22.0868 125.654 21.98 125.107 21.98V22.98C125.521 22.98 125.905 23.0599 126.267 23.2181L126.668 22.3019ZM125.107 21.98H119.687V22.98H125.107V21.98ZM119.187 22.48V36.42H120.187V22.48H119.187ZM120.187 36.42V36.4H119.187V36.42H120.187ZM134.242 21.9C134.242 21.8878 134.242 21.87 134.276 21.8322L133.528 21.1678C133.349 21.37 133.242 21.6189 133.242 21.9H134.242ZM134.276 21.8322C134.28 21.8275 134.283 21.8256 134.283 21.8251C134.284 21.8248 134.284 21.8247 134.284 21.8246C134.285 21.8244 134.287 21.8234 134.292 21.8223C134.298 21.8212 134.308 21.82 134.322 21.82V20.82C134.019 20.82 133.738 20.9319 133.528 21.1678L134.276 21.8322ZM134.322 21.82C134.323 21.82 134.324 21.8201 134.325 21.8201C134.325 21.8201 134.325 21.8201 134.325 21.8201C134.325 21.8201 134.325 21.8202 134.325 21.8202C134.325 21.8202 134.325 21.8202 134.325 21.8202C134.325 21.8202 134.325 21.8202 134.325 21.8202C134.325 21.8203 134.326 21.8205 134.327 21.821C134.33 21.8224 134.345 21.8296 134.369 21.8536L135.076 21.1464C134.878 20.9486 134.622 20.82 134.322 20.82V21.82ZM134.369 21.8536C134.393 21.8775 134.4 21.8919 134.401 21.8952C134.402 21.8962 134.402 21.8968 134.402 21.897C134.402 21.8971 134.402 21.8972 134.402 21.8972C134.402 21.8973 134.402 21.8973 134.402 21.8973C134.402 21.8973 134.402 21.8973 134.402 21.8973C134.402 21.8974 134.402 21.8975 134.402 21.8977C134.402 21.898 134.402 21.8987 134.402 21.9H135.402C135.402 21.5998 135.274 21.3443 135.076 21.1464L134.369 21.8536ZM134.402 21.9V36.42H135.402V21.9H134.402ZM134.402 36.42C134.402 36.4213 134.402 36.422 134.402 36.4223C134.402 36.4225 134.402 36.4226 134.402 36.4227C134.402 36.4227 134.402 36.4227 134.402 36.4227C134.402 36.4227 134.402 36.4227 134.402 36.4228C134.402 36.4228 134.402 36.4229 134.402 36.423C134.402 36.4232 134.402 36.4238 134.401 36.4248C134.4 36.4281 134.393 36.4425 134.369 36.4664L135.076 37.1736C135.274 36.9757 135.402 36.7202 135.402 36.42H134.402ZM134.369 36.4664C134.345 36.4904 134.33 36.4976 134.327 36.499C134.326 36.4995 134.325 36.4997 134.325 36.4998C134.325 36.4998 134.325 36.4998 134.325 36.4998C134.325 36.4998 134.325 36.4998 134.325 36.4998C134.325 36.4998 134.325 36.4999 134.325 36.4999C134.325 36.4999 134.325 36.4999 134.325 36.4999C134.324 36.4999 134.323 36.5 134.322 36.5V37.5C134.622 37.5 134.878 37.3714 135.076 37.1736L134.369 36.4664ZM134.322 36.5C134.308 36.5 134.298 36.4988 134.292 36.4977C134.287 36.4966 134.285 36.4956 134.284 36.4954C134.284 36.4953 134.284 36.4952 134.283 36.4949C134.283 36.4944 134.28 36.4925 134.276 36.4878L133.528 37.1522C133.738 37.3881 134.019 37.5 134.322 37.5V36.5ZM134.276 36.4878C134.242 36.45 134.242 36.4322 134.242 36.42H133.242C133.242 36.7011 133.349 36.95 133.528 37.1522L134.276 36.4878ZM134.242 36.42V21.9H133.242V36.42H134.242Z"
    fill="white" />
  <path fill-rule="evenodd" clip-rule="evenodd"
    d="M1.00966 10.4295C1.0558 20.8386 1.05661 20.8606 1.41954 21.6453C2.34488 23.6469 4.0042 25.0734 6.43194 25.9542C7.15502 26.2166 9.23851 26.8094 11.0619 27.2717C12.8855 27.7339 14.7329 28.2518 15.1675 28.4227C17.2279 29.2327 18.126 30.4054 18.0015 32.1231C17.8215 34.607 15.4186 36.0995 11.6156 36.0897C7.61737 36.0794 5.0522 34.4633 4.27907 31.4673L3.98942 30.3451H1.99479H0V31.0407C0 33.9529 2.24644 37.3403 5.04977 38.6559C8.99776 40.5083 14.6765 40.4379 18.0325 38.4948C19.3054 37.7578 20.7126 36.2696 21.3432 34.9934C23.1085 31.4216 22.0707 27.5975 18.7371 25.3888C17.4709 24.55 16.7108 24.2871 12.4241 23.2047C6.02449 21.5889 5.15211 21.074 5.15211 18.9131C5.15211 17.2 6.43746 15.91 8.628 15.425C9.90328 15.1427 14.124 15.2909 15.0971 15.6524C16.8284 16.2951 17.7101 17.6146 17.7041 19.553C17.7 20.8812 17.3878 21.6767 16.5042 22.6112C16.1832 22.9506 15.9206 23.2954 15.9206 23.3774C15.9206 23.6075 18.3614 24.98 18.9748 25.0948C19.7036 25.2313 20.1979 24.9792 20.7837 24.172C22.2322 22.176 22.5662 18.6918 21.5205 16.4855C20.954 15.2901 19.7213 13.974 18.6112 13.3796L17.7067 12.8951L18.5932 12.131C19.2435 11.5707 19.6443 11.0348 20.0964 10.1208C20.6924 8.91627 20.7131 8.81719 20.7131 7.16434C20.7131 5.57846 20.6755 5.37512 20.1956 4.36408C19.2828 2.44043 17.8184 1.16411 15.7117 0.455656C14.763 0.136696 14.2883 0.112698 7.83279 0.0580518L0.963359 0L1.00966 10.4295ZM13.9494 4.07982C15.0263 4.31852 15.9538 5.10546 16.336 6.10466C16.7453 7.17407 16.6109 8.86178 16.0491 9.70904C15.1451 11.0728 13.6367 11.4024 8.60543 11.3358L5.2798 11.2918L5.23594 7.72832C5.21173 5.76835 5.22651 4.07512 5.26859 3.96567C5.36915 3.70411 12.6891 3.80043 13.9494 4.07982Z"
    fill="white" />
</svg>