<svg width="62" height="62" viewBox="0 0 62 62" fill="none" xmlns="http://www.w3.org/2000/svg">
<g filter="url(#filter0_d_1_5199)">
<path d="M28.4557 5.65081C29.8437 4.2048 32.1563 4.2048 33.5443 5.65081L34.1595 6.29161C35.0237 7.19195 36.2994 7.5685 37.5141 7.28178L38.3695 7.07986C40.3122 6.62128 42.248 7.86492 42.6385 9.82246L42.8263 10.7642C43.0683 11.9774 43.9283 12.9751 45.0926 13.3934L45.98 13.7122C47.8443 14.382 48.7915 16.4554 48.0772 18.3031L47.7129 19.2455C47.27 20.391 47.455 21.6844 48.2012 22.6599L48.812 23.4585C50.013 25.0285 49.6893 27.2787 48.0947 28.4467L47.3038 29.0259C46.3103 29.7535 45.7682 30.9467 45.8738 32.1737L45.959 33.1636C46.1295 35.1445 44.6298 36.8747 42.6448 36.9872L41.7411 37.0385C40.4998 37.1089 39.3872 37.8276 38.8128 38.9302L38.3873 39.747C37.4623 41.5227 35.2464 42.1731 33.5084 41.1791L32.751 40.7459C31.6661 40.1254 30.3339 40.1254 29.249 40.7459L28.4916 41.1791C26.7536 42.1731 24.5377 41.5227 23.6127 39.747L23.1872 38.9302C22.6128 37.8276 21.5002 37.1089 20.2589 37.0385L19.3552 36.9872C17.3702 36.8747 15.8705 35.1445 16.041 33.1636L16.1262 32.1737C16.2318 30.9467 15.6897 29.7535 14.6962 29.0259L13.9053 28.4467C12.3107 27.2787 11.987 25.0285 13.188 23.4585L13.7988 22.6599C14.545 21.6844 14.73 20.391 14.2871 19.2455L13.9228 18.3031C13.2086 16.4554 14.1557 14.382 16.02 13.7122L16.9074 13.3934C18.0717 12.9751 18.9317 11.9774 19.1737 10.7642L19.3615 9.82246C19.752 7.86492 21.6878 6.62128 23.6305 7.07986L24.4859 7.28178C25.7006 7.5685 26.9763 7.19195 27.8405 6.29161L28.4557 5.65081Z" fill="url(#paint0_linear_1_5199)"/>
<path d="M28.4557 5.65081C29.8437 4.2048 32.1563 4.2048 33.5443 5.65081L34.1595 6.29161C35.0237 7.19195 36.2994 7.5685 37.5141 7.28178L38.3695 7.07986C40.3122 6.62128 42.248 7.86492 42.6385 9.82246L42.8263 10.7642C43.0683 11.9774 43.9283 12.9751 45.0926 13.3934L45.98 13.7122C47.8443 14.382 48.7915 16.4554 48.0772 18.3031L47.7129 19.2455C47.27 20.391 47.455 21.6844 48.2012 22.6599L48.812 23.4585C50.013 25.0285 49.6893 27.2787 48.0947 28.4467L47.3038 29.0259C46.3103 29.7535 45.7682 30.9467 45.8738 32.1737L45.959 33.1636C46.1295 35.1445 44.6298 36.8747 42.6448 36.9872L41.7411 37.0385C40.4998 37.1089 39.3872 37.8276 38.8128 38.9302L38.3873 39.747C37.4623 41.5227 35.2464 42.1731 33.5084 41.1791L32.751 40.7459C31.6661 40.1254 30.3339 40.1254 29.249 40.7459L28.4916 41.1791C26.7536 42.1731 24.5377 41.5227 23.6127 39.747L23.1872 38.9302C22.6128 37.8276 21.5002 37.1089 20.2589 37.0385L19.3552 36.9872C17.3702 36.8747 15.8705 35.1445 16.041 33.1636L16.1262 32.1737C16.2318 30.9467 15.6897 29.7535 14.6962 29.0259L13.9053 28.4467C12.3107 27.2787 11.987 25.0285 13.188 23.4585L13.7988 22.6599C14.545 21.6844 14.73 20.391 14.2871 19.2455L13.9228 18.3031C13.2086 16.4554 14.1557 14.382 16.02 13.7122L16.9074 13.3934C18.0717 12.9751 18.9317 11.9774 19.1737 10.7642L19.3615 9.82246C19.752 7.86492 21.6878 6.62128 23.6305 7.07986L24.4859 7.28178C25.7006 7.5685 26.9763 7.19195 27.8405 6.29161L28.4557 5.65081Z" fill="url(#paint1_linear_1_5199)" fill-opacity="0.1"/>
<path d="M17.1334 23.2709C17.1334 15.6126 23.3417 9.4043 31 9.4043C38.6583 9.4043 44.8666 15.6126 44.8666 23.2709V23.5561C44.8666 31.2144 38.6583 37.4228 31 37.4228C23.3417 37.4228 17.1334 31.2145 17.1334 23.5561V23.2709Z" fill="black" fill-opacity="0.04"/>
<path d="M18.4502 23.2709C18.4502 16.3399 24.0689 10.7212 31 10.7212C37.931 10.7212 43.5498 16.3399 43.5498 23.2709V23.5561C43.5498 30.4872 37.931 36.1059 31 36.1059C24.0689 36.1059 18.4502 30.4872 18.4502 23.5561V23.2709Z" stroke="white" stroke-opacity="0.3" stroke-width="2.63371"/>
<path d="M28.7147 25.945L26.0521 23.2551C25.9088 23.11 25.7141 23.0284 25.5112 23.0284C25.3082 23.0284 25.1136 23.11 24.9702 23.2551C24.671 23.5574 24.671 24.0458 24.9702 24.3481L28.1776 27.5884C28.4768 27.8908 28.9602 27.8908 29.2595 27.5884L37.3775 19.3869C37.6768 19.0846 37.6768 18.5962 37.3775 18.2939C37.2342 18.1487 37.0395 18.0671 36.8366 18.0671C36.6336 18.0671 36.439 18.1487 36.2956 18.2939L28.7147 25.945Z" fill="white" stroke="#FDFDFD" stroke-width="0.526742"/>
<path d="M31 10.9331C31 10.1342 31.6494 9.47874 32.4442 9.56083C34.9534 9.82003 37.3563 10.7512 39.3937 12.2684C41.8194 14.0747 43.5978 16.6153 44.4645 19.5128C45.3313 22.4103 45.2402 25.5101 44.2049 28.3517C43.1695 31.1933 41.2451 33.6252 38.7176 35.2859C36.19 36.9467 33.1941 37.7479 30.175 37.5703C27.1558 37.3928 24.2745 36.2461 21.959 34.3005C19.6435 32.3549 18.0174 29.7143 17.3222 26.7709C16.7383 24.2986 16.8374 21.7235 17.5954 19.3176C17.8355 18.5555 18.6948 18.2195 19.4282 18.5367C20.1615 18.8538 20.489 19.704 20.2694 20.4722C19.7466 22.3002 19.6974 24.2399 20.1381 26.1059C20.6902 28.4433 21.9815 30.5402 23.8203 32.0853C25.6591 33.6303 27.9473 34.5409 30.3448 34.6819C32.7424 34.8229 35.1215 34.1867 37.1287 32.8678C39.1359 31.549 40.6641 29.6178 41.4863 27.3612C42.3085 25.1046 42.3808 22.643 41.6925 20.342C41.0042 18.041 39.592 16.0234 37.6657 14.589C36.1279 13.4439 34.328 12.7192 32.4427 12.4735C31.6504 12.3702 31 11.7321 31 10.9331Z" fill="white" fill-opacity="0.5"/>
</g>
<defs>
<filter id="filter0_d_1_5199" x="-1" y="-1" width="64" height="64" filterUnits="userSpaceOnUse" color-interpolation-filters="sRGB">
<feFlood flood-opacity="0" result="BackgroundImageFix"/>
<feColorMatrix in="SourceAlpha" type="matrix" values="0 0 0 0 0 0 0 0 0 0 0 0 0 0 0 0 0 0 127 0" result="hardAlpha"/>
<feOffset dy="8"/>
<feGaussianBlur stdDeviation="6"/>
<feComposite in2="hardAlpha" operator="out"/>
<feColorMatrix type="matrix" values="0 0 0 0 0.917647 0 0 0 0 0.690196 0 0 0 0 0.12549 0 0 0 0.4 0"/>
<feBlend mode="normal" in2="BackgroundImageFix" result="effect1_dropShadow_1_5199"/>
<feBlend mode="normal" in="SourceGraphic" in2="effect1_dropShadow_1_5199" result="shape"/>
</filter>
<linearGradient id="paint0_linear_1_5199" x1="18.0234" y1="6.74606" x2="39.9632" y2="41.328" gradientUnits="userSpaceOnUse">
<stop stop-color="#FFE092"/>
<stop offset="1" stop-color="#E3A302"/>
</linearGradient>
<linearGradient id="paint1_linear_1_5199" x1="4.13062" y1="-0.124756" x2="34.516" y2="54.1104" gradientUnits="userSpaceOnUse">
<stop stop-color="white"/>
<stop offset="1" stop-color="white" stop-opacity="0"/>
</linearGradient>
</defs>
</svg>
